<svg width="300" height="200" viewBox="0 0 300 200" fill="none" xmlns="http://www.w3.org/2000/svg">
<g clip-path="url(#clip0_173_550)">
<rect width="300" height="200" fill="white"/>
<g clip-path="url(#clip1_173_550)">
</g>
<g clip-path="url(#clip2_173_550)">
<g filter="url(#filter0_i_173_550)">
<rect x="-1234" y="38.2816" width="1534.12" height="48.2325" fill="white"/>
</g>
<g clip-path="url(#clip3_173_550)">
<g clip-path="url(#clip4_173_550)">
<rect x="139" y="48.9999" width="26" height="26" rx="13" fill="#C0C0C0"/>
</g>
<g clip-path="url(#clip5_173_550)">
<rect x="183" y="48.9999" width="26" height="26" rx="13" fill="#C0C0C0"/>
</g>
<g clip-path="url(#clip6_173_550)">
<rect x="227" y="48.9999" width="26" height="26" rx="13" fill="#C0C0C0"/>
<g clip-path="url(#clip7_173_550)">
<mask id="mask0_173_550" style="mask-type:luminance" maskUnits="userSpaceOnUse" x="232" y="53" width="17" height="18">
<path d="M249 53.9999H232V70.9999H249V53.9999Z" fill="white"/>
</mask>
<g mask="url(#mask0_173_550)">
<path d="M249 54.0038L248.995 54.0065V53.9999L248.462 54.2702L240.507 58.206L232.553 54.2707L232.02 53.9999V54.007L232.016 54.0049L232.02 54.5965V62.6375L232 62.6576L232.02 62.6777V66.3724V66.799L232.231 66.9033L240.509 70.9988V70.9996L240.509 70.9993L240.511 71.0004L240.513 70.9975L248.995 66.8106V54.5963L249 54.0038Z" fill="white"/>
<path d="M249 54.0038L248.995 54.0065V53.9999L248.462 54.2702L240.507 58.206L232.553 54.2707L232.02 53.9999V54.007L232.016 54.0049L232.02 54.5965V62.6375L232 62.6576L232.02 62.6777V66.3724V66.799L232.231 66.9033L240.509 70.9988V70.9996L240.509 70.9993L240.511 71.0004L240.513 70.9975L248.995 66.8106V54.5963L249 54.0041V54.0038ZM239.158 69.7408L233.416 66.8996H236.287L239.158 69.7408H239.158ZM237.041 66.8996H243.974L240.507 70.3304L237.041 66.8996ZM244.728 66.8996H247.603L241.853 69.7443L244.728 66.8996ZM245.261 66.3724L248.462 63.2052V66.3724H245.261ZM244.507 66.3724H236.508L232.736 62.6405L240.507 58.7958L248.278 62.641L244.507 66.3724ZM232.553 54.8603L239.379 58.2374H232.553V54.8603ZM239.378 58.7649L232.553 62.1415V58.7649H239.378ZM232.553 63.2049L235.754 66.3724H232.553V63.2049ZM248.462 62.1417L241.636 58.7646H248.462V62.1417ZM248.462 58.2374H241.635L248.462 54.8597V58.2374Z" fill="#231F20"/>
</g>
</g>
</g>
<path fill-rule="evenodd" clip-rule="evenodd" d="M281.366 57.6921C282.413 57.6921 283.27 56.8353 283.27 55.7882C283.27 54.741 282.413 53.8843 281.366 53.8843C280.319 53.8843 279.462 54.741 279.462 55.7882C279.462 56.8353 280.319 57.6921 281.366 57.6921ZM281.366 59.596C280.319 59.596 279.462 60.4528 279.462 61.4999C279.462 62.5471 280.319 63.4038 281.366 63.4038C282.413 63.4038 283.27 62.5471 283.27 61.4999C283.27 60.4528 282.413 59.596 281.366 59.596ZM281.366 65.3077C280.319 65.3077 279.462 66.1645 279.462 67.2116C279.462 68.2588 280.319 69.1156 281.366 69.1156C282.413 69.1156 283.27 68.2588 283.27 67.2116C283.27 66.1645 282.413 65.3077 281.366 65.3077Z" fill="#5F6368"/>
</g>
<g clip-path="url(#clip8_173_550)">
<rect x="-1064" y="45" width="1185" height="35.5397" rx="17.7699" fill="#F1F3F4"/>
<path fill-rule="evenodd" clip-rule="evenodd" d="M105.183 60.0282L100.876 59.6544L99.1941 55.6946C98.8916 54.9739 97.8593 54.9739 97.5568 55.6946L95.875 59.6633L91.5771 60.0282C90.794 60.0905 90.4737 61.0693 91.0698 61.5854L94.3356 64.4151L93.3567 68.6152C93.1788 69.3804 94.0063 69.9855 94.6826 69.5762L98.3755 67.3516L102.068 69.5851C102.745 69.9944 103.572 69.3893 103.394 68.624L102.415 64.4151L105.681 61.5854C106.277 61.0693 105.966 60.0905 105.183 60.0282V60.0282ZM98.3754 65.6875L95.0296 67.7075L95.9195 63.8989L92.9652 61.3362L96.8627 60.998L98.3754 57.412L99.8971 61.0069L103.795 61.3451L100.84 63.9078L101.73 67.7164L98.3754 65.6875Z" fill="#5F6368"/>
</g>
</g>
<g clip-path="url(#clip9_173_550)">
<path d="M-1386.52 -20.0542C-1386.52 -25.6622 -1381.97 -30.2084 -1376.36 -30.2084H290.106C295.714 -30.2084 300.26 -25.6622 300.26 -20.0542V39.8775H-1386.52V-20.0542Z" fill="#DEE1E6"/>
</g>
<path d="M242 69L251.149 91L254.398 81.4365L264 78.1494L242 69Z" fill="#EFEFEF" stroke="black" stroke-linecap="round" stroke-linejoin="round"/>
<rect x="0.5" y="81.5" width="241" height="99" fill="white"/>
<rect x="0.5" y="81.5" width="241" height="99" stroke="black"/>
<g clip-path="url(#clip10_173_550)">
<path d="M24 105H214C216.209 105 218 106.791 218 109V153C218 155.209 216.209 157 214 157H28C25.7909 157 24 155.209 24 153V105Z" fill="white"/>
<mask id="path-15-inside-1_173_550" fill="white">
<path d="M24 113C24 108.582 27.5817 105 32 105H191C195.418 105 199 108.582 199 113V149C199 153.418 195.418 157 191 157H32C27.5817 157 24 153.418 24 149V113Z"/>
</mask>
<path d="M24 113C24 108.582 27.5817 105 32 105H191C195.418 105 199 108.582 199 113V149C199 153.418 195.418 157 191 157H32C27.5817 157 24 153.418 24 149V113Z" fill="#2C2C2C"/>
<path d="M32 106H191V104H32V106ZM198 113V149H200V113H198ZM191 156H32V158H191V156ZM25 149V113H23V149H25ZM32 156C28.134 156 25 152.866 25 149H23C23 153.971 27.0294 158 32 158V156ZM198 149C198 152.866 194.866 156 191 156V158C195.971 158 200 153.971 200 149H198ZM191 106C194.866 106 198 109.134 198 113H200C200 108.029 195.971 104 191 104V106ZM32 104C27.0294 104 23 108.029 23 113H25C25 109.134 28.134 106 32 106V104Z" fill="#2C2C2C" mask="url(#path-15-inside-1_173_550)"/>
<path d="M74.5816 129V118.818H75.8145V127.906H80.5475V129H74.5816ZM85.3998 129.159C84.7104 129.159 84.1055 128.995 83.5851 128.667C83.0681 128.339 82.6637 127.88 82.3721 127.29C82.0837 126.7 81.9395 126.01 81.9395 125.222C81.9395 124.426 82.0837 123.732 82.3721 123.138C82.6637 122.545 83.0681 122.085 83.5851 121.756C84.1055 121.428 84.7104 121.264 85.3998 121.264C86.0892 121.264 86.6924 121.428 87.2094 121.756C87.7298 122.085 88.1341 122.545 88.4225 123.138C88.7142 123.732 88.86 124.426 88.86 125.222C88.86 126.01 88.7142 126.7 88.4225 127.29C88.1341 127.88 87.7298 128.339 87.2094 128.667C86.6924 128.995 86.0892 129.159 85.3998 129.159ZM85.3998 128.105C85.9234 128.105 86.3543 127.971 86.6924 127.702C87.0305 127.434 87.2807 127.081 87.4431 126.643C87.6055 126.206 87.6867 125.732 87.6867 125.222C87.6867 124.711 87.6055 124.236 87.4431 123.795C87.2807 123.354 87.0305 122.998 86.6924 122.726C86.3543 122.454 85.9234 122.318 85.3998 122.318C84.8761 122.318 84.4452 122.454 84.1072 122.726C83.7691 122.998 83.5189 123.354 83.3564 123.795C83.194 124.236 83.1128 124.711 83.1128 125.222C83.1128 125.732 83.194 126.206 83.3564 126.643C83.5189 127.081 83.7691 127.434 84.1072 127.702C84.4452 127.971 84.8761 128.105 85.3998 128.105ZM93.7334 132.023C93.1666 132.023 92.6794 131.95 92.2718 131.804C91.8641 131.661 91.5244 131.473 91.2526 131.237C90.9841 131.005 90.7703 130.757 90.6112 130.491L91.5459 129.835C91.652 129.974 91.7862 130.134 91.9486 130.312C92.111 130.495 92.3331 130.652 92.6148 130.785C92.8998 130.921 93.2727 130.989 93.7334 130.989C94.3499 130.989 94.8586 130.839 95.2597 130.541C95.6607 130.243 95.8612 129.776 95.8612 129.139V127.588H95.7618C95.6756 127.727 95.553 127.9 95.3939 128.105C95.2381 128.307 95.0128 128.488 94.7178 128.647C94.4261 128.803 94.0317 128.881 93.5345 128.881C92.9181 128.881 92.3646 128.735 91.874 128.443C91.3868 128.152 91.0007 127.727 90.7156 127.17C90.4339 126.614 90.2931 125.937 90.2931 125.142C90.2931 124.36 90.4306 123.679 90.7057 123.099C90.9808 122.515 91.3636 122.065 91.8541 121.746C92.3447 121.425 92.9114 121.264 93.5544 121.264C94.0516 121.264 94.446 121.347 94.7377 121.513C95.0326 121.675 95.258 121.861 95.4138 122.07C95.5729 122.275 95.6955 122.444 95.7817 122.577H95.901V121.364H97.0345V129.219C97.0345 129.875 96.8854 130.409 96.5871 130.82C96.2921 131.234 95.8944 131.537 95.3939 131.729C94.8968 131.925 94.3432 132.023 93.7334 132.023ZM93.6936 127.827C94.1643 127.827 94.562 127.719 94.8868 127.504C95.2116 127.288 95.4585 126.978 95.6276 126.574C95.7966 126.17 95.8811 125.686 95.8811 125.122C95.8811 124.572 95.7983 124.086 95.6325 123.665C95.4668 123.245 95.2216 122.915 94.8968 122.676C94.5719 122.437 94.1709 122.318 93.6936 122.318C93.1965 122.318 92.7822 122.444 92.4507 122.696C92.1226 122.948 91.8757 123.286 91.71 123.71C91.5476 124.134 91.4664 124.605 91.4664 125.122C91.4664 125.652 91.5492 126.121 91.7149 126.529C91.884 126.933 92.1325 127.252 92.4607 127.484C92.7921 127.712 93.2031 127.827 93.6936 127.827ZM103.12 129V121.364H104.293V129H103.12ZM103.716 120.091C103.488 120.091 103.29 120.013 103.125 119.857C102.962 119.701 102.881 119.514 102.881 119.295C102.881 119.077 102.962 118.889 103.125 118.734C103.29 118.578 103.488 118.5 103.716 118.5C103.945 118.5 104.141 118.578 104.303 118.734C104.469 118.889 104.552 119.077 104.552 119.295C104.552 119.514 104.469 119.701 104.303 119.857C104.141 120.013 103.945 120.091 103.716 120.091ZM107.615 124.406V129H106.442V121.364H107.576V122.557H107.675C107.854 122.169 108.126 121.857 108.49 121.622C108.855 121.384 109.326 121.264 109.902 121.264C110.419 121.264 110.872 121.37 111.259 121.582C111.647 121.791 111.949 122.109 112.164 122.537C112.38 122.961 112.487 123.498 112.487 124.148V129H111.314V124.227C111.314 123.627 111.158 123.16 110.847 122.825C110.535 122.487 110.108 122.318 109.564 122.318C109.19 122.318 108.855 122.399 108.56 122.562C108.268 122.724 108.038 122.961 107.869 123.273C107.7 123.584 107.615 123.962 107.615 124.406ZM120.299 129L117.972 121.364H119.205L120.856 127.21H120.935L122.566 121.364H123.819L125.43 127.19H125.509L127.16 121.364H128.393L126.066 129H124.913L123.242 123.134H123.123L121.453 129H120.299ZM129.944 129V121.364H131.117V129H129.944ZM130.541 120.091C130.312 120.091 130.115 120.013 129.949 119.857C129.787 119.701 129.705 119.514 129.705 119.295C129.705 119.077 129.787 118.889 129.949 118.734C130.115 118.578 130.312 118.5 130.541 118.5C130.769 118.5 130.965 118.578 131.127 118.734C131.293 118.889 131.376 119.077 131.376 119.295C131.376 119.514 131.293 119.701 131.127 119.857C130.965 120.013 130.769 120.091 130.541 120.091ZM136.587 121.364V122.358H132.63V121.364H136.587ZM133.783 119.534H134.957V126.812C134.957 127.144 135.005 127.393 135.101 127.558C135.2 127.721 135.326 127.83 135.479 127.886C135.634 127.939 135.798 127.966 135.971 127.966C136.1 127.966 136.206 127.959 136.289 127.946C136.372 127.929 136.438 127.916 136.488 127.906L136.726 128.96C136.647 128.99 136.536 129.02 136.393 129.05C136.251 129.083 136.07 129.099 135.851 129.099C135.52 129.099 135.195 129.028 134.877 128.886C134.562 128.743 134.3 128.526 134.092 128.234C133.886 127.943 133.783 127.575 133.783 127.131V119.534ZM139.69 124.406V129H138.516V118.818H139.69V122.557H139.789C139.968 122.162 140.236 121.849 140.594 121.617C140.956 121.382 141.436 121.264 142.036 121.264C142.556 121.264 143.012 121.369 143.403 121.577C143.794 121.783 144.098 122.099 144.313 122.527C144.532 122.951 144.641 123.491 144.641 124.148V129H143.468V124.227C143.468 123.621 143.311 123.152 142.996 122.82C142.684 122.486 142.252 122.318 141.698 122.318C141.314 122.318 140.969 122.399 140.664 122.562C140.362 122.724 140.124 122.961 139.948 123.273C139.776 123.584 139.69 123.962 139.69 124.406ZM37.9702 145.864C37.7713 145.864 37.594 145.847 37.4382 145.814C37.2824 145.784 37.1747 145.754 37.1151 145.724L37.4134 144.69C37.6984 144.763 37.9503 144.79 38.169 144.77C38.3878 144.75 38.5817 144.652 38.7507 144.477C38.9231 144.304 39.0805 144.024 39.223 143.636L39.4418 143.04L36.6179 135.364H37.8906L39.9986 141.449H40.0781L42.1861 135.364H43.4588L40.2173 144.114C40.0715 144.508 39.8909 144.835 39.6754 145.093C39.46 145.355 39.2098 145.549 38.9247 145.675C38.643 145.801 38.3248 145.864 37.9702 145.864ZM47.8363 143.159C47.1469 143.159 46.542 142.995 46.0217 142.667C45.5046 142.339 45.1003 141.88 44.8086 141.29C44.5202 140.7 44.3761 140.01 44.3761 139.222C44.3761 138.426 44.5202 137.732 44.8086 137.138C45.1003 136.545 45.5046 136.085 46.0217 135.756C46.542 135.428 47.1469 135.264 47.8363 135.264C48.5257 135.264 49.1289 135.428 49.646 135.756C50.1663 136.085 50.5707 136.545 50.859 137.138C51.1507 137.732 51.2965 138.426 51.2965 139.222C51.2965 140.01 51.1507 140.7 50.859 141.29C50.5707 141.88 50.1663 142.339 49.646 142.667C49.1289 142.995 48.5257 143.159 47.8363 143.159ZM47.8363 142.105C48.36 142.105 48.7908 141.971 49.1289 141.702C49.467 141.434 49.7172 141.081 49.8796 140.643C50.042 140.206 50.1232 139.732 50.1232 139.222C50.1232 138.711 50.042 138.236 49.8796 137.795C49.7172 137.354 49.467 136.998 49.1289 136.726C48.7908 136.454 48.36 136.318 47.8363 136.318C47.3126 136.318 46.8817 136.454 46.5437 136.726C46.2056 136.998 45.9554 137.354 45.793 137.795C45.6306 138.236 45.5494 138.711 45.5494 139.222C45.5494 139.732 45.6306 140.206 45.793 140.643C45.9554 141.081 46.2056 141.434 46.5437 141.702C46.8817 141.971 47.3126 142.105 47.8363 142.105ZM57.9 139.878V135.364H59.0733V143H57.9V141.707H57.8205C57.6415 142.095 57.3631 142.425 56.9853 142.697C56.6074 142.965 56.1301 143.099 55.5534 143.099C55.0762 143.099 54.6519 142.995 54.2807 142.786C53.9095 142.574 53.6178 142.256 53.4057 141.832C53.1936 141.404 53.0875 140.866 53.0875 140.216V135.364H54.2608V140.136C54.2608 140.693 54.4166 141.137 54.7282 141.469C55.043 141.8 55.4441 141.966 55.9313 141.966C56.223 141.966 56.5196 141.891 56.8212 141.742C57.1261 141.593 57.3813 141.364 57.5868 141.056C57.7956 140.748 57.9 140.355 57.9 139.878ZM61.2223 143V135.364H62.3558V136.517H62.4354C62.5746 136.139 62.8265 135.833 63.1911 135.597C63.5556 135.362 63.9666 135.244 64.424 135.244C64.5102 135.244 64.6179 135.246 64.7472 135.249C64.8764 135.253 64.9742 135.258 65.0405 135.264V136.457C65.0007 136.447 64.9096 136.433 64.767 136.413C64.6278 136.389 64.4804 136.378 64.3246 136.378C63.9534 136.378 63.6219 136.456 63.3303 136.612C63.0419 136.764 62.8132 136.976 62.6442 137.248C62.4785 137.516 62.3956 137.823 62.3956 138.168V143H61.2223ZM70.5279 143V132.818H73.9682C74.767 132.818 75.4199 132.962 75.927 133.251C76.4374 133.536 76.8153 133.922 77.0605 134.409C77.3058 134.896 77.4284 135.44 77.4284 136.04C77.4284 136.64 77.3058 137.185 77.0605 137.675C76.8186 138.166 76.4441 138.557 75.937 138.849C75.4299 139.137 74.7802 139.281 73.9881 139.281H71.5222V138.188H73.9483C74.4952 138.188 74.9344 138.093 75.2658 137.904C75.5972 137.715 75.8375 137.46 75.9867 137.138C76.1391 136.814 76.2154 136.447 76.2154 136.04C76.2154 135.632 76.1391 135.268 75.9867 134.946C75.8375 134.625 75.5956 134.373 75.2608 134.19C74.9261 134.005 74.4819 133.912 73.9284 133.912H71.7608V143H70.5279ZM81.5027 143.179C81.0188 143.179 80.5796 143.088 80.1852 142.906C79.7908 142.72 79.4776 142.453 79.2456 142.105C79.0136 141.754 78.8975 141.33 78.8975 140.832C78.8975 140.395 78.9837 140.04 79.1561 139.768C79.3284 139.493 79.5588 139.278 79.8471 139.122C80.1355 138.966 80.4537 138.85 80.8017 138.774C81.153 138.695 81.506 138.632 81.8606 138.585C82.3246 138.526 82.7008 138.481 82.9892 138.451C83.2808 138.418 83.493 138.363 83.6255 138.287C83.7614 138.211 83.8294 138.078 83.8294 137.889V137.849C83.8294 137.359 83.6951 136.978 83.4267 136.706C83.1615 136.434 82.7588 136.298 82.2186 136.298C81.6584 136.298 81.2193 136.421 80.9011 136.666C80.5829 136.911 80.3592 137.173 80.2299 137.452L79.1163 137.054C79.3152 136.59 79.5803 136.229 79.9118 135.97C80.2465 135.708 80.6111 135.526 81.0055 135.423C81.4032 135.317 81.7943 135.264 82.1788 135.264C82.4241 135.264 82.7058 135.294 83.024 135.354C83.3455 135.41 83.6554 135.528 83.9537 135.707C84.2553 135.886 84.5055 136.156 84.7044 136.517C84.9032 136.878 85.0027 137.362 85.0027 137.969V143H83.8294V141.966H83.7697C83.6902 142.132 83.5576 142.309 83.372 142.498C83.1864 142.687 82.9395 142.848 82.6312 142.98C82.323 143.113 81.9468 143.179 81.5027 143.179ZM81.6816 142.125C82.1457 142.125 82.5368 142.034 82.8549 141.852C83.1764 141.669 83.4184 141.434 83.5808 141.146C83.7465 140.857 83.8294 140.554 83.8294 140.236V139.162C83.7797 139.222 83.6703 139.276 83.5012 139.326C83.3355 139.372 83.1433 139.414 82.9245 139.45C82.7091 139.483 82.4986 139.513 82.2931 139.54C82.091 139.563 81.9269 139.583 81.801 139.599C81.496 139.639 81.211 139.704 80.9458 139.793C80.684 139.879 80.4719 140.01 80.3095 140.186C80.1504 140.358 80.0708 140.594 80.0708 140.892C80.0708 141.3 80.2217 141.608 80.5233 141.817C80.8282 142.022 81.2143 142.125 81.6816 142.125ZM88.3175 138.406V143H87.1442V135.364H88.2777V136.557H88.3771C88.5561 136.169 88.8279 135.857 89.1925 135.622C89.5571 135.384 90.0277 135.264 90.6044 135.264C91.1214 135.264 91.5739 135.37 91.9616 135.582C92.3494 135.791 92.651 136.109 92.8665 136.537C93.0819 136.961 93.1896 137.498 93.1896 138.148V143H92.0163V138.227C92.0163 137.627 91.8606 137.16 91.549 136.825C91.2375 136.487 90.8099 136.318 90.2663 136.318C89.8918 136.318 89.5571 136.399 89.2621 136.562C88.9704 136.724 88.7401 136.961 88.571 137.273C88.402 137.584 88.3175 137.962 88.3175 138.406ZM98.416 146.023C97.8493 146.023 97.362 145.95 96.9544 145.804C96.5467 145.661 96.207 145.473 95.9352 145.237C95.6667 145.005 95.4529 144.757 95.2939 144.491L96.2285 143.835C96.3346 143.974 96.4688 144.134 96.6312 144.312C96.7936 144.495 97.0157 144.652 97.2974 144.785C97.5824 144.921 97.9553 144.989 98.416 144.989C99.0325 144.989 99.5413 144.839 99.9423 144.541C100.343 144.243 100.544 143.776 100.544 143.139V141.588H100.444C100.358 141.727 100.236 141.9 100.077 142.105C99.9208 142.307 99.6954 142.488 99.4004 142.647C99.1087 142.803 98.7143 142.881 98.2172 142.881C97.6007 142.881 97.0472 142.735 96.5566 142.443C96.0694 142.152 95.6833 141.727 95.3983 141.17C95.1165 140.614 94.9757 139.937 94.9757 139.142C94.9757 138.36 95.1132 137.679 95.3883 137.099C95.6634 136.515 96.0462 136.065 96.5368 135.746C97.0273 135.425 97.594 135.264 98.237 135.264C98.7342 135.264 99.1286 135.347 99.4203 135.513C99.7153 135.675 99.9406 135.861 100.096 136.07C100.256 136.275 100.378 136.444 100.464 136.577H100.584V135.364H101.717V143.219C101.717 143.875 101.568 144.409 101.27 144.82C100.975 145.234 100.577 145.537 100.077 145.729C99.5794 145.925 99.0259 146.023 98.416 146.023ZM98.3762 141.827C98.8469 141.827 99.2446 141.719 99.5694 141.504C99.8942 141.288 100.141 140.978 100.31 140.574C100.479 140.17 100.564 139.686 100.564 139.122C100.564 138.572 100.481 138.086 100.315 137.665C100.149 137.245 99.9042 136.915 99.5794 136.676C99.2546 136.437 98.8535 136.318 98.3762 136.318C97.8791 136.318 97.4648 136.444 97.1333 136.696C96.8052 136.948 96.5583 137.286 96.3926 137.71C96.2302 138.134 96.149 138.605 96.149 139.122C96.149 139.652 96.2318 140.121 96.3975 140.529C96.5666 140.933 96.8152 141.252 97.1433 141.484C97.4747 141.712 97.8857 141.827 98.3762 141.827ZM103.865 143V135.364H104.998V136.517H105.078C105.217 136.139 105.469 135.833 105.834 135.597C106.198 135.362 106.609 135.244 107.067 135.244C107.153 135.244 107.26 135.246 107.39 135.249C107.519 135.253 107.617 135.258 107.683 135.264V136.457C107.643 136.447 107.552 136.433 107.41 136.413C107.27 136.389 107.123 136.378 106.967 136.378C106.596 136.378 106.265 136.456 105.973 136.612C105.684 136.764 105.456 136.976 105.287 137.248C105.121 137.516 105.038 137.823 105.038 138.168V143H103.865ZM111.321 143.179C110.837 143.179 110.398 143.088 110.004 142.906C109.609 142.72 109.296 142.453 109.064 142.105C108.832 141.754 108.716 141.33 108.716 140.832C108.716 140.395 108.802 140.04 108.974 139.768C109.147 139.493 109.377 139.278 109.665 139.122C109.954 138.966 110.272 138.85 110.62 138.774C110.971 138.695 111.324 138.632 111.679 138.585C112.143 138.526 112.519 138.481 112.808 138.451C113.099 138.418 113.311 138.363 113.444 138.287C113.58 138.211 113.648 138.078 113.648 137.889V137.849C113.648 137.359 113.513 136.978 113.245 136.706C112.98 136.434 112.577 136.298 112.037 136.298C111.477 136.298 111.038 136.421 110.719 136.666C110.401 136.911 110.178 137.173 110.048 137.452L108.935 137.054C109.134 136.59 109.399 136.229 109.73 135.97C110.065 135.708 110.429 135.526 110.824 135.423C111.222 135.317 111.613 135.264 111.997 135.264C112.242 135.264 112.524 135.294 112.842 135.354C113.164 135.41 113.474 135.528 113.772 135.707C114.074 135.886 114.324 136.156 114.523 136.517C114.722 136.878 114.821 137.362 114.821 137.969V143H113.648V141.966H113.588C113.509 142.132 113.376 142.309 113.19 142.498C113.005 142.687 112.758 142.848 112.45 142.98C112.141 143.113 111.765 143.179 111.321 143.179ZM111.5 142.125C111.964 142.125 112.355 142.034 112.673 141.852C112.995 141.669 113.237 141.434 113.399 141.146C113.565 140.857 113.648 140.554 113.648 140.236V139.162C113.598 139.222 113.489 139.276 113.32 139.326C113.154 139.372 112.962 139.414 112.743 139.45C112.527 139.483 112.317 139.513 112.112 139.54C111.909 139.563 111.745 139.583 111.619 139.599C111.314 139.639 111.029 139.704 110.764 139.793C110.502 139.879 110.29 140.01 110.128 140.186C109.969 140.358 109.889 140.594 109.889 140.892C109.889 141.3 110.04 141.608 110.342 141.817C110.647 142.022 111.033 142.125 111.5 142.125ZM116.963 143V135.364H118.096V136.557H118.195C118.355 136.149 118.611 135.833 118.966 135.607C119.321 135.379 119.747 135.264 120.244 135.264C120.748 135.264 121.167 135.379 121.502 135.607C121.84 135.833 122.103 136.149 122.292 136.557H122.372C122.567 136.162 122.86 135.849 123.252 135.617C123.643 135.382 124.112 135.264 124.659 135.264C125.341 135.264 125.9 135.478 126.334 135.906C126.768 136.33 126.985 136.991 126.985 137.889V143H125.812V137.889C125.812 137.326 125.658 136.923 125.35 136.681C125.041 136.439 124.678 136.318 124.261 136.318C123.724 136.318 123.308 136.481 123.013 136.805C122.718 137.127 122.57 137.535 122.57 138.028V143H121.377V137.77C121.377 137.336 121.236 136.986 120.955 136.721C120.673 136.452 120.31 136.318 119.866 136.318C119.561 136.318 119.276 136.399 119.011 136.562C118.749 136.724 118.537 136.95 118.374 137.238C118.215 137.523 118.136 137.853 118.136 138.227V143H116.963ZM133.645 143H132.352L136.091 132.818H137.363L141.102 143H139.809L136.767 134.429H136.687L133.645 143ZM134.122 139.023H139.332V140.116H134.122V139.023ZM145.631 143.159C144.915 143.159 144.299 142.99 143.782 142.652C143.265 142.314 142.867 141.848 142.589 141.255C142.31 140.662 142.171 139.984 142.171 139.222C142.171 138.446 142.314 137.762 142.599 137.168C142.887 136.572 143.288 136.106 143.802 135.771C144.319 135.433 144.922 135.264 145.611 135.264C146.148 135.264 146.632 135.364 147.063 135.562C147.494 135.761 147.847 136.04 148.122 136.398C148.397 136.756 148.568 137.173 148.634 137.651H147.461C147.371 137.303 147.172 136.994 146.864 136.726C146.559 136.454 146.148 136.318 145.631 136.318C145.174 136.318 144.773 136.437 144.428 136.676C144.087 136.911 143.82 137.245 143.628 137.675C143.439 138.103 143.344 138.605 143.344 139.182C143.344 139.772 143.437 140.286 143.623 140.723C143.812 141.161 144.077 141.5 144.418 141.742C144.763 141.984 145.167 142.105 145.631 142.105C145.936 142.105 146.213 142.052 146.461 141.946C146.71 141.84 146.921 141.688 147.093 141.489C147.265 141.29 147.388 141.051 147.461 140.773H148.634C148.568 141.223 148.404 141.629 148.142 141.991C147.883 142.349 147.54 142.634 147.113 142.846C146.689 143.055 146.195 143.159 145.631 143.159ZM153.452 143.159C152.736 143.159 152.119 142.99 151.602 142.652C151.085 142.314 150.687 141.848 150.409 141.255C150.131 140.662 149.991 139.984 149.991 139.222C149.991 138.446 150.134 137.762 150.419 137.168C150.707 136.572 151.108 136.106 151.622 135.771C152.139 135.433 152.742 135.264 153.432 135.264C153.969 135.264 154.452 135.364 154.883 135.562C155.314 135.761 155.667 136.04 155.942 136.398C156.217 136.756 156.388 137.173 156.454 137.651H155.281C155.192 137.303 154.993 136.994 154.684 136.726C154.38 136.454 153.969 136.318 153.452 136.318C152.994 136.318 152.593 136.437 152.248 136.676C151.907 136.911 151.64 137.245 151.448 137.675C151.259 138.103 151.165 138.605 151.165 139.182C151.165 139.772 151.257 140.286 151.443 140.723C151.632 141.161 151.897 141.5 152.238 141.742C152.583 141.984 152.988 142.105 153.452 142.105C153.756 142.105 154.033 142.052 154.282 141.946C154.53 141.84 154.741 141.688 154.913 141.489C155.086 141.29 155.208 141.051 155.281 140.773H156.454C156.388 141.223 156.224 141.629 155.962 141.991C155.704 142.349 155.361 142.634 154.933 142.846C154.509 143.055 154.015 143.159 153.452 143.159ZM161.272 143.159C160.582 143.159 159.978 142.995 159.457 142.667C158.94 142.339 158.536 141.88 158.244 141.29C157.956 140.7 157.812 140.01 157.812 139.222C157.812 138.426 157.956 137.732 158.244 137.138C158.536 136.545 158.94 136.085 159.457 135.756C159.978 135.428 160.582 135.264 161.272 135.264C161.961 135.264 162.564 135.428 163.081 135.756C163.602 136.085 164.006 136.545 164.295 137.138C164.586 137.732 164.732 138.426 164.732 139.222C164.732 140.01 164.586 140.7 164.295 141.29C164.006 141.88 163.602 142.339 163.081 142.667C162.564 142.995 161.961 143.159 161.272 143.159ZM161.272 142.105C161.796 142.105 162.226 141.971 162.564 141.702C162.903 141.434 163.153 141.081 163.315 140.643C163.478 140.206 163.559 139.732 163.559 139.222C163.559 138.711 163.478 138.236 163.315 137.795C163.153 137.354 162.903 136.998 162.564 136.726C162.226 136.454 161.796 136.318 161.272 136.318C160.748 136.318 160.317 136.454 159.979 136.726C159.641 136.998 159.391 137.354 159.229 137.795C159.066 138.236 158.985 138.711 158.985 139.222C158.985 139.732 159.066 140.206 159.229 140.643C159.391 141.081 159.641 141.434 159.979 141.702C160.317 141.971 160.748 142.105 161.272 142.105ZM171.336 139.878V135.364H172.509V143H171.336V141.707H171.256C171.077 142.095 170.799 142.425 170.421 142.697C170.043 142.965 169.566 143.099 168.989 143.099C168.512 143.099 168.087 142.995 167.716 142.786C167.345 142.574 167.053 142.256 166.841 141.832C166.629 141.404 166.523 140.866 166.523 140.216V135.364H167.696V140.136C167.696 140.693 167.852 141.137 168.164 141.469C168.479 141.8 168.88 141.966 169.367 141.966C169.658 141.966 169.955 141.891 170.257 141.742C170.562 141.593 170.817 141.364 171.022 141.056C171.231 140.748 171.336 140.355 171.336 139.878ZM175.831 138.406V143H174.658V135.364H175.791V136.557H175.891C176.07 136.169 176.342 135.857 176.706 135.622C177.071 135.384 177.541 135.264 178.118 135.264C178.635 135.264 179.088 135.37 179.475 135.582C179.863 135.791 180.165 136.109 180.38 136.537C180.596 136.961 180.703 137.498 180.703 138.148V143H179.53V138.227C179.53 137.627 179.374 137.16 179.063 136.825C178.751 136.487 178.324 136.318 177.78 136.318C177.405 136.318 177.071 136.399 176.776 136.562C176.484 136.724 176.254 136.961 176.085 137.273C175.916 137.584 175.831 137.962 175.831 138.406ZM186.168 135.364V136.358H182.211V135.364H186.168ZM183.364 133.534H184.538V140.812C184.538 141.144 184.586 141.393 184.682 141.558C184.781 141.721 184.907 141.83 185.06 141.886C185.215 141.939 185.379 141.966 185.552 141.966C185.681 141.966 185.787 141.959 185.87 141.946C185.953 141.929 186.019 141.916 186.069 141.906L186.308 142.96C186.228 142.99 186.117 143.02 185.974 143.05C185.832 143.083 185.651 143.099 185.433 143.099C185.101 143.099 184.776 143.028 184.458 142.886C184.143 142.743 183.881 142.526 183.673 142.234C183.467 141.943 183.364 141.575 183.364 141.131V133.534Z" fill="#F5F5F5"/>
</g>
</g>
<defs>
<filter id="filter0_i_173_550" x="-1234" y="38.2816" width="1534.12" height="48.2324" filterUnits="userSpaceOnUse" color-interpolation-filters="sRGB">
<feFlood flood-opacity="0" result="BackgroundImageFix"/>
<feBlend mode="normal" in="SourceGraphic" in2="BackgroundImageFix" result="shape"/>
<feColorMatrix in="SourceAlpha" type="matrix" values="0 0 0 0 0 0 0 0 0 0 0 0 0 0 0 0 0 0 127 0" result="hardAlpha"/>
<feOffset dy="-1.26928"/>
<feComposite in2="hardAlpha" operator="arithmetic" k2="-1" k3="1"/>
<feColorMatrix type="matrix" values="0 0 0 0 0.854902 0 0 0 0 0.862745 0 0 0 0 0.878431 0 0 0 1 0"/>
<feBlend mode="normal" in2="shape" result="effect1_innerShadow_173_550"/>
</filter>
<clipPath id="clip0_173_550">
<rect width="300" height="200" fill="white"/>
</clipPath>
<clipPath id="clip1_173_550">
<rect width="1501.05" height="753.232" fill="white" transform="translate(-1225.05 69)"/>
</clipPath>
<clipPath id="clip2_173_550">
<rect width="1534.12" height="48.2325" fill="white" transform="translate(-1234 38.2823)"/>
</clipPath>
<clipPath id="clip3_173_550">
<rect width="156" height="27" fill="white" transform="translate(139 47.9999)"/>
</clipPath>
<clipPath id="clip4_173_550">
<rect width="27" height="27" fill="white" transform="translate(139 47.9999)"/>
</clipPath>
<clipPath id="clip5_173_550">
<rect width="27" height="27" fill="white" transform="translate(183 47.9999)"/>
</clipPath>
<clipPath id="clip6_173_550">
<rect width="27" height="27" fill="white" transform="translate(227 47.9999)"/>
</clipPath>
<clipPath id="clip7_173_550">
<rect width="17" height="17" fill="white" transform="translate(232 53.9999)"/>
</clipPath>
<clipPath id="clip8_173_550">
<rect width="1185" height="35" fill="white" transform="translate(-1064 44.9999)"/>
</clipPath>
<clipPath id="clip9_173_550">
<rect width="1686.78" height="70.0859" fill="white" transform="translate(-1386.52 -30.2084)"/>
</clipPath>
<clipPath id="clip10_173_550">
<path d="M24 105H214C216.209 105 218 106.791 218 109V153C218 155.209 216.209 157 214 157H28C25.7909 157 24 155.209 24 153V105Z" fill="white"/>
</clipPath>
</defs>
</svg>
