<svg width="300" height="200" viewBox="0 0 300 200" fill="none" xmlns="http://www.w3.org/2000/svg">
<g clip-path="url(#clip0_98_4582)">
<rect width="300" height="200" fill="white"/>
<rect width="265" height="24" transform="translate(2 46)" fill="#0059B3" fill-opacity="0.2"/>
<rect width="229" height="24" transform="translate(38 18)" fill="#0059B3" fill-opacity="0.2"/>
<rect x="37" y="9" width="2" height="33" rx="1" fill="#0059B2"/>
<g filter="url(#filter0_d_98_4582)">
<circle cx="38" cy="9" r="9" fill="#0059B2"/>
</g>
<g filter="url(#filter1_dd_98_4582)">
<rect x="80" y="116" width="204" height="64" rx="8" fill="black" fill-opacity="0.01"/>
</g>
<g filter="url(#filter2_b_98_4582)">
<rect x="80" y="116" width="204" height="64" rx="8" fill="#F6F6F6" fill-opacity="0.6"/>
</g>
<g filter="url(#filter3_i_98_4582)">
<rect x="79.75" y="115.75" width="204.5" height="64.5" rx="8.25" stroke="black" stroke-opacity="0.06" stroke-width="0.5"/>
</g>
<g clip-path="url(#clip1_98_4582)">
<mask id="mask0_98_4582" style="mask-type:luminance" maskUnits="userSpaceOnUse" x="81" y="116" width="194" height="64">
<rect x="81" y="116" width="194" height="64" fill="white"/>
</mask>
<g mask="url(#mask0_98_4582)">
<path d="M87.9648 173V163.694H89.8184L92.021 170.283C92.2241 170.897 92.3722 171.356 92.4653 171.661C92.5711 171.322 92.7362 170.825 92.9604 170.169L95.1885 163.694H96.8452V173H95.6582V165.211L92.9541 173H91.8433L89.1519 165.078V173H87.9648ZM103.301 170.829L104.481 170.975C104.295 171.665 103.95 172.2 103.447 172.581C102.943 172.962 102.3 173.152 101.517 173.152C100.531 173.152 99.7482 172.85 99.1685 172.245C98.5929 171.635 98.3052 170.783 98.3052 169.687C98.3052 168.552 98.5972 167.672 99.1812 167.046C99.7651 166.42 100.523 166.106 101.454 166.106C102.355 166.106 103.091 166.413 103.663 167.027C104.234 167.64 104.52 168.504 104.52 169.617C104.52 169.684 104.517 169.786 104.513 169.921H99.4858C99.5282 170.662 99.7376 171.229 100.114 171.623C100.491 172.016 100.961 172.213 101.523 172.213C101.942 172.213 102.3 172.103 102.596 171.883C102.892 171.663 103.127 171.312 103.301 170.829ZM99.5493 168.982H103.313C103.263 168.415 103.119 167.99 102.882 167.706C102.518 167.266 102.046 167.046 101.466 167.046C100.942 167.046 100.499 167.222 100.14 167.573C99.7842 167.924 99.5874 168.394 99.5493 168.982ZM105.922 173V166.259H106.951V167.217C107.446 166.477 108.161 166.106 109.096 166.106C109.502 166.106 109.875 166.181 110.213 166.329C110.556 166.472 110.812 166.663 110.981 166.9C111.151 167.137 111.269 167.418 111.337 167.744C111.379 167.956 111.4 168.326 111.4 168.855V173H110.258V168.899C110.258 168.434 110.213 168.087 110.125 167.858C110.036 167.626 109.877 167.442 109.648 167.306C109.424 167.167 109.16 167.097 108.855 167.097C108.368 167.097 107.947 167.251 107.592 167.56C107.241 167.869 107.065 168.455 107.065 169.318V173H105.922ZM117.577 173V172.01C117.052 172.771 116.339 173.152 115.438 173.152C115.04 173.152 114.667 173.076 114.32 172.924C113.978 172.771 113.722 172.581 113.552 172.353C113.387 172.12 113.271 171.836 113.203 171.502C113.157 171.278 113.133 170.922 113.133 170.436V166.259H114.276V169.998C114.276 170.594 114.299 170.996 114.346 171.204C114.418 171.504 114.57 171.741 114.803 171.915C115.035 172.084 115.323 172.168 115.666 172.168C116.009 172.168 116.33 172.082 116.631 171.908C116.931 171.73 117.143 171.491 117.266 171.191C117.393 170.886 117.456 170.446 117.456 169.871V166.259H118.599V173H117.577ZM124.369 173V163.694H125.6V173H124.369ZM130.126 171.978L130.291 172.987C129.969 173.055 129.682 173.089 129.428 173.089C129.013 173.089 128.691 173.023 128.463 172.892C128.234 172.761 128.074 172.59 127.98 172.378C127.887 172.162 127.841 171.711 127.841 171.026V167.147H127.003V166.259H127.841V164.589L128.977 163.904V166.259H130.126V167.147H128.977V171.089C128.977 171.415 128.996 171.625 129.034 171.718C129.076 171.811 129.142 171.885 129.231 171.94C129.324 171.995 129.455 172.022 129.625 172.022C129.751 172.022 129.919 172.008 130.126 171.978ZM135.864 170.829L137.045 170.975C136.859 171.665 136.514 172.2 136.01 172.581C135.507 172.962 134.863 173.152 134.081 173.152C133.095 173.152 132.312 172.85 131.732 172.245C131.156 171.635 130.869 170.783 130.869 169.687C130.869 168.552 131.161 167.672 131.745 167.046C132.329 166.42 133.086 166.106 134.017 166.106C134.918 166.106 135.655 166.413 136.226 167.027C136.797 167.64 137.083 168.504 137.083 169.617C137.083 169.684 137.081 169.786 137.077 169.921H132.049C132.092 170.662 132.301 171.229 132.678 171.623C133.054 172.016 133.524 172.213 134.087 172.213C134.506 172.213 134.863 172.103 135.16 171.883C135.456 171.663 135.691 171.312 135.864 170.829ZM132.113 168.982H135.877C135.826 168.415 135.682 167.99 135.445 167.706C135.081 167.266 134.61 167.046 134.03 167.046C133.505 167.046 133.063 167.222 132.703 167.573C132.348 167.924 132.151 168.394 132.113 168.982ZM138.486 173V166.259H139.508V167.205C139.719 166.875 140.001 166.61 140.352 166.411C140.703 166.208 141.103 166.106 141.552 166.106C142.051 166.106 142.459 166.21 142.777 166.417C143.098 166.625 143.325 166.915 143.456 167.287C143.989 166.5 144.683 166.106 145.538 166.106C146.207 166.106 146.721 166.293 147.081 166.665C147.44 167.033 147.62 167.602 147.62 168.373V173H146.484V168.753C146.484 168.296 146.446 167.968 146.37 167.77C146.298 167.566 146.164 167.403 145.97 167.281C145.775 167.158 145.547 167.097 145.284 167.097C144.81 167.097 144.417 167.255 144.104 167.573C143.79 167.886 143.634 168.389 143.634 169.083V173H142.491V168.62C142.491 168.112 142.398 167.731 142.212 167.478C142.026 167.224 141.721 167.097 141.298 167.097C140.976 167.097 140.678 167.181 140.403 167.351C140.132 167.52 139.935 167.767 139.812 168.093C139.69 168.419 139.628 168.889 139.628 169.502V173H138.486Z" fill="black" fill-opacity="0.85"/>
<rect x="81" y="136" width="194" height="22" rx="4" fill="#5A99FA"/>
<g clip-path="url(#clip2_98_4582)">
<mask id="mask1_98_4582" style="mask-type:luminance" maskUnits="userSpaceOnUse" x="87" y="139" width="15" height="16">
<path d="M102 139.5H87V154.5H102V139.5Z" fill="white"/>
</mask>
<g mask="url(#mask1_98_4582)">
<path d="M102 139.503L101.995 139.506V139.5L101.525 139.739L94.5061 143.211L87.488 139.739L87.0179 139.5V139.506L87.0141 139.504L87.0179 140.026V147.121L87 147.139L87.0179 147.157V150.417V150.793L87.2041 150.885L94.5076 154.499V154.5L94.5083 154.5L94.5101 154.5L94.5113 154.498L101.995 150.804V140.026L102 139.503Z" fill="white"/>
<path d="M102 139.503L101.995 139.506V139.5L101.525 139.739L94.5061 143.211L87.488 139.739L87.0179 139.5V139.506L87.0141 139.504L87.0179 140.026V147.121L87 147.139L87.0179 147.157V150.417V150.793L87.2041 150.885L94.5076 154.499V154.5L94.5083 154.5L94.5101 154.5L94.5113 154.498L101.995 150.804V140.026L102 139.504V139.503ZM93.3159 153.389L88.2493 150.882H90.7827L93.3162 153.389H93.3159ZM91.4475 150.882H97.5657L94.5066 153.909L91.4475 150.882ZM98.2307 150.882H100.767L95.6942 153.392L98.2307 150.882ZM98.7011 150.417L101.525 147.622V150.417H98.7011ZM98.036 150.417H90.9774L87.6497 147.124L94.5061 143.732L101.363 147.125L98.036 150.417ZM87.488 140.259L93.5106 143.239H87.488V140.259ZM93.5096 143.704L87.488 146.684V143.704H93.5096ZM87.488 147.622L90.3124 150.417H87.488V147.622ZM101.525 146.684L95.5026 143.704H101.525V146.684ZM101.525 143.239H95.5014L101.525 140.259V143.239Z" fill="#231F20"/>
</g>
</g>
<path d="M115.643 148.737L116.874 149.048C116.616 150.06 116.15 150.832 115.478 151.365C114.809 151.894 113.99 152.159 113.021 152.159C112.018 152.159 111.201 151.956 110.571 151.549C109.944 151.139 109.466 150.546 109.136 149.772C108.81 148.998 108.647 148.166 108.647 147.277C108.647 146.308 108.832 145.464 109.2 144.745C109.572 144.021 110.099 143.473 110.78 143.101C111.466 142.724 112.219 142.536 113.04 142.536C113.971 142.536 114.754 142.773 115.389 143.247C116.023 143.721 116.466 144.387 116.715 145.246L115.503 145.532C115.287 144.855 114.974 144.362 114.563 144.053C114.153 143.744 113.637 143.589 113.015 143.589C112.299 143.589 111.701 143.761 111.218 144.104C110.74 144.446 110.404 144.908 110.209 145.487C110.014 146.063 109.917 146.657 109.917 147.271C109.917 148.062 110.031 148.754 110.26 149.347C110.493 149.935 110.852 150.375 111.339 150.667C111.826 150.959 112.352 151.105 112.919 151.105C113.609 151.105 114.193 150.906 114.671 150.508C115.15 150.111 115.473 149.52 115.643 148.737ZM118.251 152V142.694H119.394V146.033C119.927 145.415 120.6 145.106 121.413 145.106C121.912 145.106 122.346 145.206 122.714 145.405C123.082 145.599 123.344 145.87 123.501 146.217C123.662 146.564 123.742 147.068 123.742 147.728V152H122.6V147.728C122.6 147.157 122.475 146.742 122.225 146.484C121.98 146.222 121.631 146.09 121.178 146.09C120.839 146.09 120.52 146.179 120.219 146.357C119.923 146.53 119.711 146.767 119.584 147.068C119.458 147.368 119.394 147.783 119.394 148.312V152H118.251ZM130.103 149.829L131.283 149.975C131.097 150.665 130.752 151.2 130.249 151.581C129.745 151.962 129.102 152.152 128.319 152.152C127.333 152.152 126.55 151.85 125.97 151.245C125.395 150.635 125.107 149.783 125.107 148.687C125.107 147.552 125.399 146.672 125.983 146.046C126.567 145.42 127.324 145.106 128.255 145.106C129.157 145.106 129.893 145.413 130.464 146.027C131.036 146.64 131.321 147.504 131.321 148.617C131.321 148.684 131.319 148.786 131.315 148.921H126.288C126.33 149.662 126.539 150.229 126.916 150.623C127.293 151.016 127.762 151.213 128.325 151.213C128.744 151.213 129.102 151.103 129.398 150.883C129.694 150.663 129.929 150.312 130.103 149.829ZM126.351 147.982H130.115C130.064 147.415 129.921 146.99 129.684 146.706C129.32 146.266 128.848 146.046 128.268 146.046C127.743 146.046 127.301 146.222 126.941 146.573C126.586 146.924 126.389 147.394 126.351 147.982ZM137.123 149.531L138.247 149.677C138.124 150.451 137.809 151.058 137.301 151.499C136.797 151.934 136.177 152.152 135.441 152.152C134.518 152.152 133.776 151.852 133.213 151.251C132.654 150.646 132.375 149.78 132.375 148.655C132.375 147.927 132.496 147.29 132.737 146.744C132.978 146.198 133.344 145.79 133.835 145.519C134.33 145.244 134.868 145.106 135.447 145.106C136.179 145.106 136.778 145.293 137.244 145.665C137.709 146.033 138.007 146.558 138.139 147.239L137.028 147.411C136.922 146.958 136.734 146.617 136.463 146.389C136.196 146.16 135.873 146.046 135.492 146.046C134.916 146.046 134.449 146.253 134.089 146.668C133.729 147.078 133.549 147.73 133.549 148.623C133.549 149.529 133.723 150.187 134.07 150.597C134.417 151.008 134.87 151.213 135.428 151.213C135.877 151.213 136.251 151.075 136.552 150.8C136.852 150.525 137.043 150.102 137.123 149.531ZM139.23 152V142.694H140.373V148.001L143.077 145.259H144.556L141.979 147.76L144.816 152H143.407L141.179 148.553L140.373 149.328V152H139.23ZM149.615 152V146.147H148.606V145.259H149.615V144.542C149.615 144.089 149.655 143.752 149.736 143.532C149.846 143.236 150.038 142.997 150.313 142.815C150.593 142.629 150.982 142.536 151.481 142.536C151.803 142.536 152.159 142.574 152.548 142.65L152.376 143.646C152.139 143.604 151.915 143.583 151.704 143.583C151.357 143.583 151.111 143.657 150.967 143.805C150.823 143.953 150.751 144.23 150.751 144.637V145.259H152.065V146.147H150.751V152H149.615ZM152.535 148.629C152.535 147.381 152.882 146.456 153.576 145.855C154.156 145.356 154.863 145.106 155.696 145.106C156.623 145.106 157.381 145.411 157.969 146.021C158.557 146.626 158.851 147.464 158.851 148.534C158.851 149.402 158.72 150.085 158.458 150.584C158.199 151.08 157.821 151.465 157.321 151.74C156.826 152.015 156.285 152.152 155.696 152.152C154.753 152.152 153.989 151.85 153.405 151.245C152.825 150.639 152.535 149.768 152.535 148.629ZM153.709 148.629C153.709 149.493 153.898 150.14 154.274 150.572C154.651 150.999 155.125 151.213 155.696 151.213C156.263 151.213 156.735 150.997 157.112 150.565C157.488 150.134 157.677 149.476 157.677 148.591C157.677 147.758 157.486 147.127 157.105 146.7C156.729 146.268 156.259 146.052 155.696 146.052C155.125 146.052 154.651 146.266 154.274 146.693C153.898 147.121 153.709 147.766 153.709 148.629ZM160.184 152V145.259H161.212V146.281C161.475 145.803 161.716 145.487 161.936 145.335C162.16 145.183 162.406 145.106 162.672 145.106C163.057 145.106 163.449 145.229 163.847 145.475L163.453 146.535C163.174 146.37 162.895 146.287 162.615 146.287C162.366 146.287 162.141 146.363 161.942 146.516C161.743 146.664 161.602 146.871 161.517 147.138C161.39 147.544 161.327 147.988 161.327 148.471V152H160.184ZM166.544 152L170.118 142.694H171.445L175.253 152H173.851L172.765 149.182H168.874L167.852 152H166.544ZM169.229 148.179H172.384L171.413 145.602C171.117 144.819 170.897 144.175 170.753 143.672C170.634 144.269 170.467 144.861 170.251 145.449L169.229 148.179ZM176.447 152V142.694H177.678V152H176.447ZM187.727 149.531L188.85 149.677C188.727 150.451 188.412 151.058 187.904 151.499C187.401 151.934 186.781 152.152 186.044 152.152C185.122 152.152 184.379 151.852 183.816 151.251C183.258 150.646 182.979 149.78 182.979 148.655C182.979 147.927 183.099 147.29 183.34 146.744C183.582 146.198 183.948 145.79 184.438 145.519C184.934 145.244 185.471 145.106 186.051 145.106C186.783 145.106 187.382 145.293 187.847 145.665C188.313 146.033 188.611 146.558 188.742 147.239L187.631 147.411C187.526 146.958 187.337 146.617 187.066 146.389C186.8 146.16 186.476 146.046 186.095 146.046C185.52 146.046 185.052 146.253 184.692 146.668C184.333 147.078 184.153 147.73 184.153 148.623C184.153 149.529 184.326 150.187 184.673 150.597C185.02 151.008 185.473 151.213 186.032 151.213C186.48 151.213 186.855 151.075 187.155 150.8C187.456 150.525 187.646 150.102 187.727 149.531ZM189.402 148.629C189.402 147.381 189.749 146.456 190.443 145.855C191.023 145.356 191.73 145.106 192.563 145.106C193.49 145.106 194.248 145.411 194.836 146.021C195.424 146.626 195.718 147.464 195.718 148.534C195.718 149.402 195.587 150.085 195.325 150.584C195.067 151.08 194.688 151.465 194.188 151.74C193.693 152.015 193.152 152.152 192.563 152.152C191.62 152.152 190.856 151.85 190.272 151.245C189.692 150.639 189.402 149.768 189.402 148.629ZM190.577 148.629C190.577 149.493 190.765 150.14 191.142 150.572C191.518 150.999 191.992 151.213 192.563 151.213C193.131 151.213 193.602 150.997 193.979 150.565C194.356 150.134 194.544 149.476 194.544 148.591C194.544 147.758 194.354 147.127 193.973 146.7C193.596 146.268 193.126 146.052 192.563 146.052C191.992 146.052 191.518 146.266 191.142 146.693C190.765 147.121 190.577 147.766 190.577 148.629ZM197.064 152V145.259H198.092V146.217C198.587 145.477 199.303 145.106 200.238 145.106C200.644 145.106 201.016 145.181 201.355 145.329C201.698 145.472 201.954 145.663 202.123 145.9C202.292 146.137 202.411 146.418 202.479 146.744C202.521 146.956 202.542 147.326 202.542 147.855V152H201.399V147.899C201.399 147.434 201.355 147.087 201.266 146.858C201.177 146.626 201.019 146.442 200.79 146.306C200.566 146.167 200.301 146.097 199.997 146.097C199.51 146.097 199.089 146.251 198.733 146.56C198.382 146.869 198.207 147.455 198.207 148.318V152H197.064ZM206.795 150.978L206.96 151.987C206.638 152.055 206.351 152.089 206.097 152.089C205.682 152.089 205.36 152.023 205.132 151.892C204.903 151.761 204.743 151.59 204.649 151.378C204.556 151.162 204.51 150.711 204.51 150.026V146.147H203.672V145.259H204.51V143.589L205.646 142.904V145.259H206.795V146.147H205.646V150.089C205.646 150.415 205.665 150.625 205.703 150.718C205.745 150.811 205.811 150.885 205.9 150.94C205.993 150.995 206.124 151.022 206.293 151.022C206.42 151.022 206.588 151.008 206.795 150.978ZM212.533 149.829L213.714 149.975C213.528 150.665 213.183 151.2 212.679 151.581C212.176 151.962 211.532 152.152 210.75 152.152C209.764 152.152 208.981 151.85 208.401 151.245C207.825 150.635 207.538 149.783 207.538 148.687C207.538 147.552 207.83 146.672 208.414 146.046C208.998 145.42 209.755 145.106 210.686 145.106C211.587 145.106 212.324 145.413 212.895 146.027C213.466 146.64 213.752 147.504 213.752 148.617C213.752 148.684 213.75 148.786 213.746 148.921H208.718C208.761 149.662 208.97 150.229 209.347 150.623C209.723 151.016 210.193 151.213 210.756 151.213C211.175 151.213 211.532 151.103 211.829 150.883C212.125 150.663 212.36 150.312 212.533 149.829ZM208.782 147.982H212.546C212.495 147.415 212.351 146.99 212.114 146.706C211.75 146.266 211.278 146.046 210.699 146.046C210.174 146.046 209.732 146.222 209.372 146.573C209.017 146.924 208.82 147.394 208.782 147.982ZM215.155 152V145.259H216.183V146.217C216.678 145.477 217.393 145.106 218.329 145.106C218.735 145.106 219.107 145.181 219.446 145.329C219.789 145.472 220.045 145.663 220.214 145.9C220.383 146.137 220.502 146.418 220.569 146.744C220.612 146.956 220.633 147.326 220.633 147.855V152H219.49V147.899C219.49 147.434 219.446 147.087 219.357 146.858C219.268 146.626 219.109 146.442 218.881 146.306C218.657 146.167 218.392 146.097 218.087 146.097C217.601 146.097 217.18 146.251 216.824 146.56C216.473 146.869 216.297 147.455 216.297 148.318V152H215.155ZM224.886 150.978L225.051 151.987C224.729 152.055 224.441 152.089 224.188 152.089C223.773 152.089 223.451 152.023 223.223 151.892C222.994 151.761 222.833 151.59 222.74 151.378C222.647 151.162 222.601 150.711 222.601 150.026V146.147H221.763V145.259H222.601V143.589L223.737 142.904V145.259H224.886V146.147H223.737V150.089C223.737 150.415 223.756 150.625 223.794 150.718C223.836 150.811 223.902 150.885 223.991 150.94C224.084 150.995 224.215 151.022 224.384 151.022C224.511 151.022 224.678 151.008 224.886 150.978Z" fill="white"/>
<path d="M87.9648 131V121.694H89.8184L92.021 128.283C92.2241 128.897 92.3722 129.356 92.4653 129.661C92.5711 129.322 92.7362 128.825 92.9604 128.169L95.1885 121.694H96.8452V131H95.6582V123.211L92.9541 131H91.8433L89.1519 123.078V131H87.9648ZM103.301 128.829L104.481 128.975C104.295 129.665 103.95 130.2 103.447 130.581C102.943 130.962 102.3 131.152 101.517 131.152C100.531 131.152 99.7482 130.85 99.1685 130.245C98.5929 129.635 98.3052 128.783 98.3052 127.687C98.3052 126.552 98.5972 125.672 99.1812 125.046C99.7651 124.42 100.523 124.106 101.454 124.106C102.355 124.106 103.091 124.413 103.663 125.027C104.234 125.64 104.52 126.504 104.52 127.617C104.52 127.684 104.517 127.786 104.513 127.921H99.4858C99.5282 128.662 99.7376 129.229 100.114 129.623C100.491 130.016 100.961 130.213 101.523 130.213C101.942 130.213 102.3 130.103 102.596 129.883C102.892 129.663 103.127 129.312 103.301 128.829ZM99.5493 126.982H103.313C103.263 126.415 103.119 125.99 102.882 125.706C102.518 125.266 102.046 125.046 101.466 125.046C100.942 125.046 100.499 125.222 100.14 125.573C99.7842 125.924 99.5874 126.394 99.5493 126.982ZM105.922 131V124.259H106.951V125.217C107.446 124.477 108.161 124.106 109.096 124.106C109.502 124.106 109.875 124.181 110.213 124.329C110.556 124.472 110.812 124.663 110.981 124.9C111.151 125.137 111.269 125.418 111.337 125.744C111.379 125.956 111.4 126.326 111.4 126.855V131H110.258V126.899C110.258 126.434 110.213 126.087 110.125 125.858C110.036 125.626 109.877 125.442 109.648 125.306C109.424 125.167 109.16 125.097 108.855 125.097C108.368 125.097 107.947 125.251 107.592 125.56C107.241 125.869 107.065 126.455 107.065 127.318V131H105.922ZM117.577 131V130.01C117.052 130.771 116.339 131.152 115.438 131.152C115.04 131.152 114.667 131.076 114.32 130.924C113.978 130.771 113.722 130.581 113.552 130.353C113.387 130.12 113.271 129.836 113.203 129.502C113.157 129.278 113.133 128.922 113.133 128.436V124.259H114.276V127.998C114.276 128.594 114.299 128.996 114.346 129.204C114.418 129.504 114.57 129.741 114.803 129.915C115.035 130.084 115.323 130.168 115.666 130.168C116.009 130.168 116.33 130.082 116.631 129.908C116.931 129.73 117.143 129.491 117.266 129.191C117.393 128.886 117.456 128.446 117.456 127.871V124.259H118.599V131H117.577ZM124.369 131V121.694H125.6V131H124.369ZM130.126 129.978L130.291 130.987C129.969 131.055 129.682 131.089 129.428 131.089C129.013 131.089 128.691 131.023 128.463 130.892C128.234 130.761 128.074 130.59 127.98 130.378C127.887 130.162 127.841 129.711 127.841 129.026V125.147H127.003V124.259H127.841V122.589L128.977 121.904V124.259H130.126V125.147H128.977V129.089C128.977 129.415 128.996 129.625 129.034 129.718C129.076 129.811 129.142 129.885 129.231 129.94C129.324 129.995 129.455 130.022 129.625 130.022C129.751 130.022 129.919 130.008 130.126 129.978ZM135.864 128.829L137.045 128.975C136.859 129.665 136.514 130.2 136.01 130.581C135.507 130.962 134.863 131.152 134.081 131.152C133.095 131.152 132.312 130.85 131.732 130.245C131.156 129.635 130.869 128.783 130.869 127.687C130.869 126.552 131.161 125.672 131.745 125.046C132.329 124.42 133.086 124.106 134.017 124.106C134.918 124.106 135.655 124.413 136.226 125.027C136.797 125.64 137.083 126.504 137.083 127.617C137.083 127.684 137.081 127.786 137.077 127.921H132.049C132.092 128.662 132.301 129.229 132.678 129.623C133.054 130.016 133.524 130.213 134.087 130.213C134.506 130.213 134.863 130.103 135.16 129.883C135.456 129.663 135.691 129.312 135.864 128.829ZM132.113 126.982H135.877C135.826 126.415 135.682 125.99 135.445 125.706C135.081 125.266 134.61 125.046 134.03 125.046C133.505 125.046 133.063 125.222 132.703 125.573C132.348 125.924 132.151 126.394 132.113 126.982ZM138.486 131V124.259H139.508V125.205C139.719 124.875 140.001 124.61 140.352 124.411C140.703 124.208 141.103 124.106 141.552 124.106C142.051 124.106 142.459 124.21 142.777 124.417C143.098 124.625 143.325 124.915 143.456 125.287C143.989 124.5 144.683 124.106 145.538 124.106C146.207 124.106 146.721 124.293 147.081 124.665C147.44 125.033 147.62 125.602 147.62 126.373V131H146.484V126.753C146.484 126.296 146.446 125.968 146.37 125.77C146.298 125.566 146.164 125.403 145.97 125.281C145.775 125.158 145.547 125.097 145.284 125.097C144.81 125.097 144.417 125.255 144.104 125.573C143.79 125.886 143.634 126.389 143.634 127.083V131H142.491V126.62C142.491 126.112 142.398 125.731 142.212 125.478C142.026 125.224 141.721 125.097 141.298 125.097C140.976 125.097 140.678 125.181 140.403 125.351C140.132 125.52 139.935 125.767 139.812 126.093C139.69 126.419 139.628 126.889 139.628 127.502V131H138.486Z" fill="black" fill-opacity="0.85"/>
</g>
</g>
<rect width="113" height="24" transform="translate(2 75)" fill="#0059B3" fill-opacity="0.2"/>
<rect x="114" y="75" width="2" height="33" rx="1" fill="#146FE1"/>
<g filter="url(#filter4_d_98_4582)">
<circle cx="115" cy="108" r="9" fill="#146FE1"/>
</g>
<path d="M56.8349 21.5341V20.5455H69.065V21.5341H63.4826V38H62.4173V21.5341H56.8349ZM73.9377 29.5114V38H72.8979V20.5455H73.9377V26.9801H74.04C74.3468 26.2983 74.8354 25.7557 75.5059 25.3523C76.182 24.9432 76.9917 24.7386 77.9349 24.7386C78.8155 24.7386 79.5911 24.9261 80.2616 25.3011C80.932 25.6705 81.4547 26.2017 81.8297 26.8949C82.2104 27.5824 82.4008 28.4062 82.4008 29.3665V38H81.3695V29.4091C81.3695 28.2898 81.0371 27.392 80.3724 26.7159C79.7076 26.0398 78.8297 25.7017 77.7388 25.7017C77.0059 25.7017 76.3525 25.8608 75.7786 26.179C75.2047 26.4972 74.753 26.9432 74.4235 27.517C74.0996 28.0852 73.9377 28.75 73.9377 29.5114ZM92.125 38.2727C90.9432 38.2727 89.9148 37.9801 89.0398 37.3949C88.1648 36.8097 87.4887 36.0085 87.0114 34.9915C86.5341 33.9744 86.2955 32.8153 86.2955 31.5142C86.2955 30.2074 86.5341 29.0426 87.0114 28.0199C87.4944 26.9972 88.1563 26.1903 88.9972 25.5994C89.8381 25.0085 90.7983 24.7131 91.8779 24.7131C92.6108 24.7131 93.304 24.8608 93.9574 25.1562C94.6165 25.446 95.1961 25.8665 95.6961 26.4176C96.2017 26.9687 96.5966 27.6335 96.8807 28.4119C97.1705 29.1903 97.3154 30.0653 97.3154 31.0369V31.6847H86.9517V30.7386H96.2756C96.2756 29.7898 96.0824 28.9347 95.6961 28.1733C95.3097 27.4119 94.7841 26.8068 94.1194 26.358C93.4546 25.9091 92.7074 25.6847 91.8779 25.6847C91.0086 25.6847 90.233 25.929 89.5512 26.4176C88.875 26.9006 88.3381 27.554 87.9404 28.3778C87.5483 29.2017 87.3438 30.1222 87.3267 31.1392V31.5653C87.3267 32.6562 87.5171 33.6364 87.8978 34.5057C88.2841 35.3693 88.8353 36.054 89.5512 36.5597C90.2671 37.0597 91.125 37.3097 92.125 37.3097C92.841 37.3097 93.4517 37.1903 93.9574 36.9517C94.4688 36.7074 94.8864 36.4119 95.2103 36.0653C95.5341 35.7187 95.7785 35.3835 95.9432 35.0597L96.8892 35.4432C96.6904 35.8807 96.3807 36.3182 95.9603 36.7557C95.5455 37.1875 95.0171 37.5483 94.375 37.8381C93.7387 38.1278 92.9887 38.2727 92.125 38.2727ZM117.101 42.9091V35.1449H116.998C116.799 35.7131 116.51 36.2358 116.129 36.7131C115.748 37.1847 115.28 37.5625 114.723 37.8466C114.166 38.1307 113.515 38.2727 112.771 38.2727C111.726 38.2727 110.811 37.983 110.027 37.4034C109.248 36.8182 108.64 36.017 108.203 35C107.771 33.9773 107.555 32.8068 107.555 31.4886C107.555 30.1705 107.771 29.0028 108.203 27.9858C108.635 26.9631 109.243 26.1619 110.027 25.5824C110.811 25.0028 111.728 24.7131 112.78 24.7131C113.535 24.7131 114.189 24.858 114.74 25.1477C115.291 25.4318 115.754 25.8097 116.129 26.2812C116.504 26.7528 116.794 27.2699 116.998 27.8324H117.126V24.9091H118.132V42.9091H117.101ZM112.865 37.3097C113.745 37.3097 114.501 37.0568 115.132 36.5511C115.768 36.0398 116.257 35.3466 116.598 34.4716C116.939 33.5909 117.109 32.5937 117.109 31.4801C117.109 30.3665 116.942 29.375 116.606 28.5057C116.271 27.6307 115.785 26.9432 115.149 26.4432C114.513 25.9375 113.751 25.6847 112.865 25.6847C111.961 25.6847 111.192 25.9403 110.555 26.4517C109.919 26.9574 109.43 27.6477 109.089 28.5227C108.754 29.3977 108.586 30.3835 108.586 31.4801C108.586 32.5767 108.757 33.5653 109.098 34.446C109.439 35.3267 109.927 36.0256 110.564 36.5426C111.2 37.054 111.967 37.3097 112.865 37.3097ZM131.163 33.3551V24.9091H132.203V38H131.163V35.8778H131.078C130.771 36.554 130.274 37.1051 129.586 37.5312C128.904 37.9574 128.098 38.1705 127.166 38.1705C126.308 38.1705 125.549 37.983 124.89 37.608C124.231 37.233 123.714 36.7017 123.339 36.0142C122.964 35.321 122.777 34.4972 122.777 33.5426V24.9091H123.816V33.5C123.816 34.5909 124.146 35.4744 124.805 36.1506C125.47 36.821 126.328 37.1562 127.379 37.1562C128.061 37.1562 128.689 37.0028 129.262 36.696C129.836 36.3892 130.296 35.9517 130.643 35.3835C130.99 34.8097 131.163 34.1335 131.163 33.3551ZM136.879 38V24.9091H137.911V38H136.879ZM137.399 22.5909C137.172 22.5909 136.973 22.5114 136.803 22.3523C136.638 22.1932 136.556 22 136.556 21.7727C136.556 21.5455 136.638 21.3523 136.803 21.1932C136.967 21.0341 137.166 20.9545 137.399 20.9545C137.627 20.9545 137.823 21.0341 137.987 21.1932C138.158 21.3523 138.243 21.5455 138.243 21.7727C138.243 22 138.161 22.1932 137.996 22.3523C137.831 22.5114 137.632 22.5909 137.399 22.5909ZM147.492 38.2727C146.379 38.2727 145.398 37.9801 144.552 37.3949C143.705 36.804 143.043 35.9972 142.566 34.9744C142.094 33.9517 141.859 32.7926 141.859 31.4972C141.859 30.2017 142.097 29.0426 142.575 28.0199C143.052 26.9972 143.714 26.1903 144.56 25.5994C145.407 25.0085 146.381 24.7131 147.484 24.7131C148.313 24.7131 149.069 24.8835 149.751 25.2244C150.438 25.5653 151.006 26.0398 151.455 26.6477C151.91 27.2557 152.2 27.9602 152.325 28.7614H151.268C151.097 27.875 150.671 27.142 149.989 26.5625C149.313 25.9773 148.481 25.6847 147.492 25.6847C146.606 25.6847 145.816 25.9347 145.123 26.4347C144.43 26.929 143.884 27.6136 143.486 28.4886C143.089 29.358 142.89 30.3551 142.89 31.4801C142.89 32.5881 143.083 33.5824 143.469 34.4631C143.856 35.3381 144.396 36.0312 145.089 36.5426C145.782 37.054 146.583 37.3097 147.492 37.3097C148.134 37.3097 148.719 37.1818 149.248 36.9261C149.782 36.6705 150.228 36.3068 150.586 35.8352C150.944 35.3636 151.18 34.8125 151.293 34.1818H152.35C152.225 34.9886 151.941 35.6989 151.498 36.3125C151.055 36.9261 150.489 37.4063 149.802 37.7528C149.114 38.0994 148.344 38.2727 147.492 38.2727ZM157.116 32.8864L157.099 31.3949H157.372L163.917 24.9091H165.273L159.264 30.875L159.162 30.9176L157.116 32.8864ZM156.213 38V20.5455H157.253V38H156.213ZM164.216 38L158.693 31.0199L159.443 30.3295L165.545 38H164.216ZM176.105 38V20.5455H177.136V27.8324H177.238C177.443 27.2699 177.732 26.7528 178.107 26.2812C178.482 25.8097 178.948 25.4318 179.505 25.1477C180.062 24.858 180.713 24.7131 181.457 24.7131C182.508 24.7131 183.426 25.0057 184.21 25.5909C184.994 26.1705 185.602 26.9716 186.034 27.9943C186.465 29.0114 186.681 30.1761 186.681 31.4886C186.681 32.8125 186.465 33.9858 186.034 35.0085C185.602 36.0256 184.997 36.8239 184.218 37.4034C183.44 37.983 182.522 38.2727 181.465 38.2727C180.721 38.2727 180.071 38.1307 179.514 37.8466C178.957 37.5568 178.491 37.1761 178.116 36.7045C177.741 36.2273 177.448 35.7074 177.238 35.1449H177.119V38H176.105ZM177.127 31.4801C177.127 32.5937 177.295 33.5909 177.63 34.4716C177.971 35.3466 178.46 36.0398 179.096 36.5511C179.732 37.0568 180.494 37.3097 181.38 37.3097C182.278 37.3097 183.045 37.054 183.681 36.5426C184.318 36.0256 184.804 35.3267 185.139 34.446C185.48 33.5653 185.65 32.5767 185.65 31.4801C185.65 30.3835 185.48 29.3977 185.139 28.5227C184.804 27.6477 184.318 26.9574 183.681 26.4517C183.045 25.9403 182.278 25.6847 181.38 25.6847C180.494 25.6847 179.732 25.9375 179.096 26.4432C178.46 26.9432 177.971 27.6307 177.63 28.5057C177.295 29.375 177.127 30.3665 177.127 31.4801ZM190.587 38V24.9091H191.601V26.9545H191.695C191.979 26.2841 192.459 25.7472 193.135 25.3438C193.811 24.9347 194.581 24.7301 195.445 24.7301C195.536 24.7301 195.627 24.7301 195.717 24.7301C195.808 24.7301 195.894 24.733 195.973 24.7386V25.7869C195.905 25.7812 195.823 25.7727 195.726 25.7614C195.635 25.7443 195.521 25.7358 195.385 25.7358C194.658 25.7358 194.01 25.892 193.442 26.2045C192.879 26.517 192.436 26.9489 192.112 27.5C191.788 28.0455 191.627 28.6705 191.627 29.375V38H190.587ZM203.552 38.2727C202.472 38.2727 201.512 37.983 200.671 37.4034C199.83 36.8182 199.168 36.0142 198.685 34.9915C198.202 33.9687 197.961 32.804 197.961 31.4972C197.961 30.1847 198.202 29.0199 198.685 28.0028C199.168 26.9801 199.83 26.1761 200.671 25.5909C201.512 25.0057 202.472 24.7131 203.552 24.7131C204.631 24.7131 205.592 25.0057 206.432 25.5909C207.273 26.1761 207.935 26.9801 208.418 28.0028C208.901 29.0256 209.143 30.1903 209.143 31.4972C209.143 32.804 208.901 33.9687 208.418 34.9915C207.935 36.0142 207.273 36.8182 206.432 37.4034C205.592 37.983 204.631 38.2727 203.552 38.2727ZM203.552 37.3097C204.467 37.3097 205.265 37.0511 205.947 36.5341C206.634 36.017 207.165 35.3182 207.54 34.4375C207.921 33.5568 208.111 32.5767 208.111 31.4972C208.111 30.4176 207.921 29.4403 207.54 28.5653C207.16 27.6847 206.628 26.9858 205.947 26.4688C205.265 25.946 204.467 25.6847 203.552 25.6847C202.637 25.6847 201.839 25.946 201.157 26.4688C200.475 26.9858 199.944 27.6847 199.563 28.5653C199.182 29.4403 198.992 30.4176 198.992 31.4972C198.992 32.5767 199.18 33.5568 199.555 34.4375C199.935 35.3182 200.467 36.017 201.148 36.5341C201.836 37.0511 202.637 37.3097 203.552 37.3097ZM215.451 38L211.531 24.9091H212.622L215.997 36.4744H216.091L219.474 24.9091H220.557L223.932 36.4659H224.017L227.392 24.9091H228.483L224.562 38H223.403L220.062 26.6051H219.951L216.611 38H215.451ZM233.078 29.5114V38H232.039V24.9091H233.053V26.9801H233.155C233.462 26.304 233.953 25.7614 234.63 25.3523C235.306 24.9432 236.11 24.7386 237.042 24.7386C237.922 24.7386 238.695 24.9261 239.36 25.3011C240.03 25.6761 240.553 26.2102 240.928 26.9034C241.309 27.5909 241.499 28.4119 241.499 29.3665V38H240.459V29.4091C240.459 28.2955 240.127 27.4006 239.462 26.7244C238.803 26.0426 237.931 25.7017 236.846 25.7017C236.118 25.7017 235.471 25.8608 234.902 26.179C234.334 26.4972 233.888 26.9432 233.564 27.517C233.24 28.0852 233.078 28.75 233.078 29.5114ZM13.0994 53.9091V54.8381H7.29545V53.9091H13.0994ZM9.20455 67V51.8722C9.20455 51.2131 9.35511 50.6506 9.65625 50.1847C9.95739 49.7187 10.3523 49.3636 10.8409 49.1193C11.3352 48.875 11.8665 48.7528 12.4347 48.7528C12.7358 48.7528 12.9915 48.7784 13.2017 48.8295C13.4176 48.875 13.6051 48.929 13.7642 48.9915L13.4574 49.9119C13.3267 49.8665 13.1847 49.8267 13.0312 49.7926C12.8835 49.7585 12.7074 49.7415 12.5028 49.7415C11.8438 49.7415 11.3011 49.9432 10.875 50.3466C10.4489 50.75 10.2358 51.3125 10.2358 52.0341L10.2273 67H9.20455ZM20.9807 67.2727C19.9011 67.2727 18.9409 66.983 18.1 66.4034C17.2591 65.8182 16.5971 65.0142 16.1142 63.9915C15.6312 62.9687 15.3898 61.804 15.3898 60.4972C15.3898 59.1847 15.6312 58.0199 16.1142 57.0028C16.5971 55.9801 17.2591 55.1761 18.1 54.5909C18.9409 54.0057 19.9011 53.7131 20.9807 53.7131C22.0602 53.7131 23.0204 54.0057 23.8614 54.5909C24.7023 55.1761 25.3642 55.9801 25.8471 57.0028C26.3301 58.0256 26.5716 59.1903 26.5716 60.4972C26.5716 61.804 26.3301 62.9687 25.8471 63.9915C25.3642 65.0142 24.7023 65.8182 23.8614 66.4034C23.0204 66.983 22.0602 67.2727 20.9807 67.2727ZM20.9807 66.3097C21.8954 66.3097 22.6937 66.0511 23.3756 65.5341C24.0631 65.017 24.5943 64.3182 24.9693 63.4375C25.35 62.5568 25.5403 61.5767 25.5403 60.4972C25.5403 59.4176 25.35 58.4403 24.9693 57.5653C24.5886 56.6847 24.0574 55.9858 23.3756 55.4688C22.6937 54.946 21.8954 54.6847 20.9807 54.6847C20.0659 54.6847 19.2676 54.946 18.5858 55.4688C17.904 55.9858 17.3727 56.6847 16.992 57.5653C16.6114 58.4403 16.421 59.4176 16.421 60.4972C16.421 61.5767 16.6085 62.5568 16.9835 63.4375C17.3642 64.3182 17.8954 65.017 18.5773 65.5341C19.2648 66.0511 20.0659 66.3097 20.9807 66.3097ZM30.3236 53.9091L33.9372 59.7301L37.5508 53.9091H38.7525L34.5594 60.4545L38.7525 67H37.5508L33.9372 61.2727L30.3236 67H29.1133L33.2895 60.4545L29.1133 53.9091H30.3236ZM49.672 53.9091H50.7032V68.5938C50.7032 69.2699 50.564 69.8551 50.2856 70.3494C50.0072 70.8494 49.6237 71.233 49.135 71.5C48.6521 71.7727 48.0924 71.9091 47.4561 71.9091C47.4106 71.9091 47.3623 71.9063 47.3112 71.9006C47.26 71.9006 47.2004 71.8949 47.1322 71.8835L47.1833 70.9205C47.2288 70.9205 47.2714 70.9205 47.3112 70.9205C47.351 70.9205 47.3936 70.9205 47.439 70.9205C48.0754 70.9205 48.6066 70.7131 49.0328 70.2983C49.4589 69.8892 49.672 69.321 49.672 68.5938V53.9091ZM50.1833 51.5909C49.9504 51.5909 49.7515 51.5114 49.5867 51.3523C49.422 51.1932 49.3396 51 49.3396 50.7727C49.3396 50.5455 49.422 50.3523 49.5867 50.1932C49.7515 50.0341 49.9504 49.9545 50.1833 49.9545C50.4106 49.9545 50.6066 50.0341 50.7714 50.1932C50.9362 50.3523 51.0186 50.5455 51.0186 50.7727C51.0186 51 50.9362 51.1932 50.7714 51.3523C50.6066 51.5114 50.4106 51.5909 50.1833 51.5909ZM63.762 62.3551V53.9091H64.8018V67H63.762V64.8778H63.6768C63.37 65.554 62.8728 66.1051 62.1853 66.5312C61.5035 66.9574 60.6967 67.1705 59.7649 67.1705C58.9069 67.1705 58.1484 66.983 57.4893 66.608C56.8302 66.233 56.3132 65.7017 55.9382 65.0142C55.5632 64.321 55.3757 63.4972 55.3757 62.5426V53.9091H56.4154V62.5C56.4154 63.5909 56.745 64.4744 57.4041 65.1506C58.0688 65.821 58.9268 66.1562 59.9779 66.1562C60.6597 66.1562 61.2876 66.0028 61.8615 65.696C62.4353 65.3892 62.8955 64.9517 63.2421 64.3835C63.5887 63.8097 63.762 63.1335 63.762 62.3551ZM69.4273 67V53.9091H70.4416V55.8864H70.5438C70.7938 55.2273 71.2256 54.7045 71.8393 54.3182C72.4529 53.9318 73.1916 53.7386 74.0552 53.7386C75.0041 53.7386 75.7683 53.9659 76.3478 54.4205C76.933 54.875 77.3535 55.4915 77.6092 56.2699H77.7029C77.9586 55.5028 78.416 54.8892 79.0751 54.429C79.7398 53.9688 80.558 53.7386 81.5296 53.7386C82.7967 53.7386 83.7626 54.1392 84.4273 54.9403C85.0978 55.7358 85.433 56.8267 85.433 58.2131V67H84.3933V58.2131C84.3933 57.1222 84.1319 56.2642 83.6092 55.6392C83.0864 55.0142 82.3194 54.7017 81.308 54.7017C80.2285 54.7017 79.3989 55.0398 78.8194 55.7159C78.2398 56.392 77.9501 57.2528 77.9501 58.2983V67H76.9103V58.1449C76.9103 57.1278 76.6546 56.3011 76.1433 55.6648C75.6319 55.0227 74.8648 54.7017 73.8421 54.7017C73.1489 54.7017 72.5495 54.8608 72.0438 55.179C71.5438 55.4972 71.1546 55.9347 70.8762 56.4915C70.6035 57.0483 70.4671 57.6875 70.4671 58.4091V67H69.4273ZM90.065 71.9091V53.9091H91.0792V56.8324H91.207C91.4116 56.2699 91.6985 55.7528 92.0678 55.2812C92.4428 54.8097 92.9059 54.4318 93.457 54.1477C94.0138 53.858 94.6673 53.7131 95.4173 53.7131C96.4741 53.7131 97.3945 54.0028 98.1786 54.5824C98.9627 55.1619 99.5707 55.9631 100.002 56.9858C100.434 58.0028 100.65 59.1705 100.65 60.4886C100.65 61.8068 100.431 62.9773 99.994 64C99.5621 65.017 98.9542 65.8182 98.1701 66.4034C97.3917 66.983 96.4798 67.2727 95.4343 67.2727C94.69 67.2727 94.0366 67.1307 93.4741 66.8466C92.9173 66.5625 92.4485 66.1847 92.0678 65.7131C91.6928 65.2358 91.4059 64.7131 91.207 64.1449H91.1048V71.9091H90.065ZM91.0877 60.4801C91.0877 61.5937 91.2582 62.5909 91.5991 63.4716C91.94 64.3466 92.4286 65.0398 93.065 65.5511C93.7013 66.0568 94.4599 66.3097 95.3405 66.3097C96.2326 66.3097 96.9968 66.054 97.6332 65.5426C98.2752 65.0256 98.7638 64.3267 99.0991 63.446C99.44 62.5653 99.6104 61.5767 99.6104 60.4801C99.6104 59.3835 99.4428 58.3977 99.1076 57.5227C98.7724 56.6477 98.2866 55.9574 97.6502 55.4517C97.0138 54.9403 96.244 54.6847 95.3405 54.6847C94.4485 54.6847 93.6843 54.9375 93.0479 55.4432C92.4173 55.9432 91.9315 56.6307 91.5905 57.5057C91.2553 58.375 91.0877 59.3665 91.0877 60.4801ZM112.88 56.7301L111.917 56.9858C111.764 56.5085 111.545 56.0966 111.261 55.75C110.977 55.4034 110.619 55.1364 110.187 54.9489C109.761 54.7557 109.249 54.6591 108.653 54.6591C107.693 54.6591 106.906 54.8977 106.292 55.375C105.684 55.8523 105.38 56.4744 105.38 57.2415C105.38 57.8665 105.588 58.3835 106.002 58.7926C106.417 59.196 107.051 59.5028 107.903 59.7131L109.914 60.2159C110.948 60.4716 111.727 60.8864 112.249 61.4602C112.772 62.0284 113.034 62.7358 113.034 63.5824C113.034 64.304 112.838 64.9432 112.446 65.5C112.053 66.0568 111.511 66.4915 110.818 66.804C110.13 67.1165 109.329 67.2727 108.414 67.2727C107.193 67.2727 106.19 66.9886 105.406 66.4205C104.622 65.8466 104.119 65.0256 103.897 63.9574L104.894 63.7017C105.082 64.554 105.471 65.2045 106.062 65.6534C106.659 66.0966 107.44 66.3182 108.406 66.3182C109.474 66.3182 110.335 66.0653 110.988 65.5597C111.647 65.054 111.977 64.4062 111.977 63.6165C111.977 63.0142 111.784 62.5057 111.397 62.0909C111.011 61.6761 110.426 61.3722 109.642 61.179L107.553 60.6676C106.485 60.4062 105.684 59.9886 105.15 59.4148C104.616 58.8352 104.349 58.1222 104.349 57.2756C104.349 56.571 104.534 55.9517 104.903 55.4176C105.272 54.8835 105.781 54.4659 106.428 54.1648C107.076 53.8636 107.818 53.7131 108.653 53.7131C109.761 53.7131 110.664 53.9744 111.363 54.4972C112.062 55.0199 112.568 55.7642 112.88 56.7301ZM128.883 67.2727C127.804 67.2727 126.844 66.983 126.003 66.4034C125.162 65.8182 124.5 65.0142 124.017 63.9915C123.534 62.9687 123.293 61.804 123.293 60.4972C123.293 59.1847 123.534 58.0199 124.017 57.0028C124.5 55.9801 125.162 55.1761 126.003 54.5909C126.844 54.0057 127.804 53.7131 128.883 53.7131C129.963 53.7131 130.923 54.0057 131.764 54.5909C132.605 55.1761 133.267 55.9801 133.75 57.0028C134.233 58.0256 134.474 59.1903 134.474 60.4972C134.474 61.804 134.233 62.9687 133.75 63.9915C133.267 65.0142 132.605 65.8182 131.764 66.4034C130.923 66.983 129.963 67.2727 128.883 67.2727ZM128.883 66.3097C129.798 66.3097 130.596 66.0511 131.278 65.5341C131.966 65.017 132.497 64.3182 132.872 63.4375C133.253 62.5568 133.443 61.5767 133.443 60.4972C133.443 59.4176 133.253 58.4403 132.872 57.5653C132.491 56.6847 131.96 55.9858 131.278 55.4688C130.596 54.946 129.798 54.6847 128.883 54.6847C127.969 54.6847 127.17 54.946 126.489 55.4688C125.807 55.9858 125.275 56.6847 124.895 57.5653C124.514 58.4403 124.324 59.4176 124.324 60.4972C124.324 61.5767 124.511 62.5568 124.886 63.4375C125.267 64.3182 125.798 65.017 126.48 65.5341C127.168 66.0511 127.969 66.3097 128.883 66.3097ZM147.476 53.9091L142.745 67H141.569L136.839 53.9091H137.956L142.115 65.6619H142.2L146.359 53.9091H147.476ZM155.679 67.2727C154.497 67.2727 153.468 66.9801 152.593 66.3949C151.718 65.8097 151.042 65.0085 150.565 63.9915C150.088 62.9744 149.849 61.8153 149.849 60.5142C149.849 59.2074 150.088 58.0426 150.565 57.0199C151.048 55.9972 151.71 55.1903 152.551 54.5994C153.392 54.0085 154.352 53.7131 155.431 53.7131C156.164 53.7131 156.858 53.8608 157.511 54.1562C158.17 54.446 158.75 54.8665 159.25 55.4176C159.755 55.9687 160.15 56.6335 160.434 57.4119C160.724 58.1903 160.869 59.0653 160.869 60.0369V60.6847H150.505V59.7386H159.829C159.829 58.7898 159.636 57.9347 159.25 57.1733C158.863 56.4119 158.338 55.8068 157.673 55.358C157.008 54.9091 156.261 54.6847 155.431 54.6847C154.562 54.6847 153.787 54.929 153.105 55.4176C152.429 55.9006 151.892 56.554 151.494 57.3778C151.102 58.2017 150.897 59.1222 150.88 60.1392V60.5653C150.88 61.6562 151.071 62.6364 151.451 63.5057C151.838 64.3693 152.389 65.054 153.105 65.5597C153.821 66.0597 154.679 66.3097 155.679 66.3097C156.394 66.3097 157.005 66.1903 157.511 65.9517C158.022 65.7074 158.44 65.4119 158.764 65.0653C159.088 64.7187 159.332 64.3835 159.497 64.0597L160.443 64.4432C160.244 64.8807 159.934 65.3182 159.514 65.7557C159.099 66.1875 158.571 66.5483 157.929 66.8381C157.292 67.1278 156.542 67.2727 155.679 67.2727ZM164.766 67V53.9091H165.78V55.9545H165.874C166.158 55.2841 166.638 54.7472 167.314 54.3438C167.99 53.9347 168.76 53.7301 169.624 53.7301C169.715 53.7301 169.806 53.7301 169.896 53.7301C169.987 53.7301 170.073 53.733 170.152 53.7386V54.7869C170.084 54.7812 170.002 54.7727 169.905 54.7614C169.814 54.7443 169.7 54.7358 169.564 54.7358C168.837 54.7358 168.189 54.892 167.621 55.2045C167.058 55.517 166.615 55.9489 166.291 56.5C165.967 57.0455 165.806 57.6705 165.806 58.375V67H164.766ZM184.958 53.9091V54.8381H179.239V53.9091H184.958ZM181.174 50.7727H182.205V63.9062C182.205 64.4403 182.307 64.8778 182.512 65.2188C182.722 65.554 182.995 65.804 183.33 65.9688C183.671 66.1278 184.035 66.2074 184.421 66.2074C184.609 66.2074 184.77 66.1932 184.907 66.1648C185.049 66.1364 185.182 66.0994 185.307 66.054L185.563 67C185.404 67.0568 185.228 67.1051 185.035 67.1449C184.841 67.1903 184.614 67.2131 184.353 67.2131C183.807 67.2131 183.29 67.0909 182.802 66.8466C182.319 66.6023 181.927 66.2472 181.626 65.7812C181.324 65.3153 181.174 64.7528 181.174 64.0938V50.7727ZM190.453 58.5114V67H189.413V49.5455H190.453V55.9801H190.555C190.862 55.2983 191.351 54.7557 192.021 54.3523C192.697 53.9432 193.507 53.7386 194.45 53.7386C195.331 53.7386 196.106 53.9261 196.777 54.3011C197.447 54.6705 197.97 55.2017 198.345 55.8949C198.726 56.5824 198.916 57.4062 198.916 58.3665V67H197.885V58.4091C197.885 57.2898 197.552 56.392 196.887 55.7159C196.223 55.0398 195.345 54.7017 194.254 54.7017C193.521 54.7017 192.868 54.8608 192.294 55.179C191.72 55.4972 191.268 55.9432 190.939 56.517C190.615 57.0852 190.453 57.75 190.453 58.5114ZM208.64 67.2727C207.458 67.2727 206.43 66.9801 205.555 66.3949C204.68 65.8097 204.004 65.0085 203.527 63.9915C203.049 62.9744 202.811 61.8153 202.811 60.5142C202.811 59.2074 203.049 58.0426 203.527 57.0199C204.009 55.9972 204.671 55.1903 205.512 54.5994C206.353 54.0085 207.313 53.7131 208.393 53.7131C209.126 53.7131 209.819 53.8608 210.473 54.1562C211.132 54.446 211.711 54.8665 212.211 55.4176C212.717 55.9687 213.112 56.6335 213.396 57.4119C213.686 58.1903 213.831 59.0653 213.831 60.0369V60.6847H203.467V59.7386H212.791C212.791 58.7898 212.598 57.9347 212.211 57.1733C211.825 56.4119 211.299 55.8068 210.634 55.358C209.97 54.9091 209.223 54.6847 208.393 54.6847C207.524 54.6847 206.748 54.929 206.066 55.4176C205.39 55.9006 204.853 56.554 204.456 57.3778C204.063 58.2017 203.859 59.1222 203.842 60.1392V60.5653C203.842 61.6562 204.032 62.6364 204.413 63.5057C204.799 64.3693 205.35 65.054 206.066 65.5597C206.782 66.0597 207.64 66.3097 208.64 66.3097C209.356 66.3097 209.967 66.1903 210.473 65.9517C210.984 65.7074 211.402 65.4119 211.725 65.0653C212.049 64.7187 212.294 64.3835 212.458 64.0597L213.404 64.4432C213.206 64.8807 212.896 65.3182 212.475 65.7557C212.061 66.1875 211.532 66.5483 210.89 66.8381C210.254 67.1278 209.504 67.2727 208.64 67.2727ZM225.834 49.5455V67H224.795V49.5455H225.834ZM233.924 67.2812C233.169 67.2812 232.476 67.1307 231.845 66.8295C231.22 66.5284 230.717 66.0881 230.336 65.5085C229.961 64.929 229.774 64.2244 229.774 63.3949C229.774 62.8494 229.871 62.3693 230.064 61.9545C230.257 61.5398 230.555 61.1818 230.959 60.8807C231.362 60.5795 231.879 60.3324 232.51 60.1392C233.14 59.9403 233.893 59.7869 234.768 59.679C235.433 59.5994 236.027 59.5227 236.549 59.4489C237.072 59.3693 237.481 59.2472 237.777 59.0824C238.078 58.9176 238.228 58.6676 238.228 58.3324V57.7869C238.228 56.8324 237.927 56.0739 237.325 55.5114C236.723 54.9489 235.893 54.6676 234.836 54.6676C233.899 54.6676 233.109 54.875 232.467 55.2898C231.831 55.6989 231.385 56.2273 231.129 56.875L230.149 56.5085C230.399 55.8835 230.76 55.3636 231.231 54.9489C231.709 54.5341 232.254 54.2244 232.868 54.0199C233.487 53.8153 234.135 53.7131 234.811 53.7131C235.396 53.7131 235.953 53.7955 236.481 53.9602C237.015 54.125 237.49 54.375 237.905 54.7102C238.325 55.0455 238.657 55.4744 238.902 55.9972C239.146 56.5142 239.268 57.1335 239.268 57.8551V67H238.228V64.6392H238.152C237.924 65.1278 237.612 65.5739 237.214 65.9773C236.822 66.375 236.348 66.6932 235.791 66.9318C235.24 67.1648 234.618 67.2812 233.924 67.2812ZM234.027 66.3182C234.845 66.3182 235.569 66.1193 236.2 65.7216C236.836 65.3182 237.334 64.767 237.692 64.0682C238.049 63.3693 238.228 62.5767 238.228 61.6903V59.7642C238.098 59.8778 237.907 59.9801 237.657 60.071C237.413 60.1562 237.135 60.233 236.822 60.3011C236.515 60.3636 236.192 60.4205 235.851 60.4716C235.515 60.517 235.189 60.5597 234.871 60.5994C233.916 60.7131 233.138 60.8892 232.535 61.1278C231.939 61.3608 231.501 61.6676 231.223 62.0483C230.95 62.429 230.814 62.8892 230.814 63.429C230.814 64.321 231.121 65.0256 231.734 65.5426C232.348 66.0597 233.112 66.3182 234.027 66.3182ZM243.502 67V66.1222L251.206 54.9915V54.8977H243.928V53.9091H252.527V54.804L244.891 65.9176V66.0114H252.834V67H243.502ZM257.566 71.9091C257.305 71.9091 257.046 71.8807 256.791 71.8239C256.535 71.767 256.305 71.6932 256.1 71.6023L256.407 70.6903C256.941 70.8949 257.424 70.9688 257.856 70.9119C258.294 70.8551 258.68 70.6563 259.015 70.3153C259.35 69.9744 259.634 69.4744 259.867 68.8153L260.464 67.179L255.666 53.9091H256.782L260.941 65.6619H261.026L265.186 53.9091H266.302L260.779 69.2244C260.569 69.8153 260.305 70.3097 259.987 70.7074C259.669 71.1051 259.305 71.4034 258.896 71.6023C258.492 71.8068 258.049 71.9091 257.566 71.9091ZM12.6477 96.2727C11.5966 96.2727 10.679 95.983 9.89489 95.4034C9.1108 94.8239 8.50284 94.0256 8.07102 93.0085C7.64489 91.9858 7.43182 90.8125 7.43182 89.4886C7.43182 88.1761 7.64773 87.0114 8.07955 85.9943C8.51705 84.9716 9.12784 84.1705 9.91193 83.5909C10.696 83.0057 11.6108 82.7131 12.6562 82.7131C13.4062 82.7131 14.0568 82.858 14.608 83.1477C15.1648 83.4318 15.6307 83.8097 16.0057 84.2812C16.3864 84.7528 16.6761 85.2699 16.875 85.8324H16.9773V78.5455H18.0085V96H17.0028V93.1449H16.875C16.6648 93.7074 16.3722 94.2273 15.9972 94.7045C15.6222 95.1761 15.1563 95.5568 14.5994 95.8466C14.0426 96.1307 13.392 96.2727 12.6477 96.2727ZM12.7415 95.3097C13.6278 95.3097 14.3864 95.0568 15.017 94.5511C15.6534 94.0398 16.1392 93.3466 16.4744 92.4716C16.8153 91.5909 16.9858 90.5937 16.9858 89.4801C16.9858 88.3665 16.8153 87.375 16.4744 86.5057C16.1392 85.6307 15.6534 84.9432 15.017 84.4432C14.3864 83.9375 13.6278 83.6847 12.7415 83.6847C11.8438 83.6847 11.0739 83.9403 10.4318 84.4517C9.79545 84.9574 9.30682 85.6477 8.96591 86.5227C8.63068 87.3977 8.46307 88.3835 8.46307 89.4801C8.46307 90.5767 8.63068 91.5653 8.96591 92.446C9.30682 93.3267 9.79545 94.0256 10.4318 94.5426C11.0739 95.054 11.8438 95.3097 12.7415 95.3097ZM27.8713 96.2727C26.7918 96.2727 25.8315 95.983 24.9906 95.4034C24.1497 94.8182 23.4878 94.0142 23.0048 92.9915C22.5219 91.9687 22.2804 90.804 22.2804 89.4972C22.2804 88.1847 22.5219 87.0199 23.0048 86.0028C23.4878 84.9801 24.1497 84.1761 24.9906 83.5909C25.8315 83.0057 26.7918 82.7131 27.8713 82.7131C28.9508 82.7131 29.9111 83.0057 30.752 83.5909C31.5929 84.1761 32.2548 84.9801 32.7378 86.0028C33.2207 87.0256 33.4622 88.1903 33.4622 89.4972C33.4622 90.804 33.2207 91.9687 32.7378 92.9915C32.2548 94.0142 31.5929 94.8182 30.752 95.4034C29.9111 95.983 28.9508 96.2727 27.8713 96.2727ZM27.8713 95.3097C28.7861 95.3097 29.5844 95.0511 30.2662 94.5341C30.9537 94.017 31.4849 93.3182 31.8599 92.4375C32.2406 91.5568 32.431 90.5767 32.431 89.4972C32.431 88.4176 32.2406 87.4403 31.8599 86.5653C31.4793 85.6847 30.948 84.9858 30.2662 84.4688C29.5844 83.946 28.7861 83.6847 27.8713 83.6847C26.9565 83.6847 26.1582 83.946 25.4764 84.4688C24.7946 84.9858 24.2633 85.6847 23.8827 86.5653C23.502 87.4403 23.3116 88.4176 23.3116 89.4972C23.3116 90.5767 23.4991 91.5568 23.8741 92.4375C24.2548 93.3182 24.7861 94.017 25.4679 94.5341C26.1554 95.0511 26.9565 95.3097 27.8713 95.3097ZM42.0828 101.182C41.2703 101.182 40.5402 101.074 39.8925 100.858C39.2447 100.648 38.6936 100.347 38.239 99.9545C37.7902 99.5625 37.4464 99.0966 37.2078 98.5568L38.0771 98.0455C38.2703 98.4659 38.5459 98.8409 38.9038 99.1705C39.2618 99.5 39.705 99.7585 40.2334 99.946C40.7675 100.134 41.3839 100.227 42.0828 100.227C43.3442 100.227 44.3413 99.9006 45.0743 99.2472C45.8129 98.5994 46.1822 97.6051 46.1822 96.2642V93.0085H46.08C45.8811 93.5767 45.5856 94.0824 45.1936 94.5256C44.8072 94.9631 44.3328 95.3068 43.7703 95.5568C43.2078 95.8068 42.5686 95.9318 41.8527 95.9318C40.8186 95.9318 39.9095 95.6648 39.1254 95.1307C38.3413 94.5966 37.7305 93.8466 37.293 92.8807C36.8555 91.9091 36.6368 90.767 36.6368 89.4545C36.6368 88.142 36.8498 86.9801 37.276 85.9688C37.7078 84.9517 38.3157 84.1562 39.0998 83.5824C39.8839 83.0028 40.8044 82.7131 41.8612 82.7131C42.6169 82.7131 43.2703 82.858 43.8214 83.1477C44.3782 83.4318 44.8442 83.8097 45.2192 84.2812C45.5942 84.7528 45.8839 85.2699 46.0885 85.8324H46.2078V82.9091H47.2135V96.3068C47.2135 97.3977 46.9976 98.304 46.5657 99.0256C46.1396 99.7472 45.5402 100.287 44.7675 100.645C44.0004 101.003 43.1055 101.182 42.0828 101.182ZM41.9464 94.9688C42.8214 94.9688 43.5743 94.7472 44.205 94.304C44.8413 93.8551 45.33 93.2187 45.6709 92.3949C46.0175 91.5653 46.1907 90.5824 46.1907 89.446C46.1907 88.3437 46.0231 87.358 45.6879 86.4886C45.3527 85.6193 44.8669 84.9347 44.2305 84.4347C43.5942 83.9347 42.8328 83.6847 41.9464 83.6847C41.043 83.6847 40.2731 83.9403 39.6368 84.4517C39.0004 84.9574 38.5118 85.6449 38.1709 86.5142C37.8356 87.3835 37.668 88.3608 37.668 89.446C37.668 90.5369 37.8385 91.4972 38.1794 92.3267C38.5203 93.1506 39.0089 93.7983 39.6453 94.2699C40.2817 94.7358 41.0487 94.9688 41.9464 94.9688Z" fill="#363636"/>
</g>
<defs>
<filter id="filter0_d_98_4582" x="9" y="-17" width="58" height="58" filterUnits="userSpaceOnUse" color-interpolation-filters="sRGB">
<feFlood flood-opacity="0" result="BackgroundImageFix"/>
<feColorMatrix in="SourceAlpha" type="matrix" values="0 0 0 0 0 0 0 0 0 0 0 0 0 0 0 0 0 0 127 0" result="hardAlpha"/>
<feMorphology radius="6" operator="dilate" in="SourceAlpha" result="effect1_dropShadow_98_4582"/>
<feOffset dy="3"/>
<feGaussianBlur stdDeviation="7"/>
<feComposite in2="hardAlpha" operator="out"/>
<feColorMatrix type="matrix" values="0 0 0 0 0 0 0 0 0 0 0 0 0 0 0 0 0 0 0.12 0"/>
<feBlend mode="normal" in2="BackgroundImageFix" result="effect1_dropShadow_98_4582"/>
<feBlend mode="normal" in="SourceGraphic" in2="effect1_dropShadow_98_4582" result="shape"/>
</filter>
<filter id="filter1_dd_98_4582" x="59" y="103" width="246" height="106" filterUnits="userSpaceOnUse" color-interpolation-filters="sRGB">
<feFlood flood-opacity="0" result="BackgroundImageFix"/>
<feColorMatrix in="SourceAlpha" type="matrix" values="0 0 0 0 0 0 0 0 0 0 0 0 0 0 0 0 0 0 127 0" result="hardAlpha"/>
<feMorphology radius="6" operator="dilate" in="SourceAlpha" result="effect1_dropShadow_98_4582"/>
<feOffset dy="8"/>
<feGaussianBlur stdDeviation="7.5"/>
<feColorMatrix type="matrix" values="0 0 0 0 0 0 0 0 0 0 0 0 0 0 0 0 0 0 0.18 0"/>
<feBlend mode="normal" in2="BackgroundImageFix" result="effect1_dropShadow_98_4582"/>
<feColorMatrix in="SourceAlpha" type="matrix" values="0 0 0 0 0 0 0 0 0 0 0 0 0 0 0 0 0 0 127 0" result="hardAlpha"/>
<feOffset dy="2"/>
<feGaussianBlur stdDeviation="2"/>
<feColorMatrix type="matrix" values="0 0 0 0 0 0 0 0 0 0 0 0 0 0 0 0 0 0 0.15 0"/>
<feBlend mode="normal" in2="effect1_dropShadow_98_4582" result="effect2_dropShadow_98_4582"/>
<feBlend mode="normal" in="SourceGraphic" in2="effect2_dropShadow_98_4582" result="shape"/>
</filter>
<filter id="filter2_b_98_4582" x="-1.54845" y="34.4515" width="367.097" height="227.097" filterUnits="userSpaceOnUse" color-interpolation-filters="sRGB">
<feFlood flood-opacity="0" result="BackgroundImageFix"/>
<feGaussianBlur in="BackgroundImageFix" stdDeviation="40.7742"/>
<feComposite in2="SourceAlpha" operator="in" result="effect1_backgroundBlur_98_4582"/>
<feBlend mode="normal" in="SourceGraphic" in2="effect1_backgroundBlur_98_4582" result="shape"/>
</filter>
<filter id="filter3_i_98_4582" x="79.5" y="115.5" width="205" height="65.5" filterUnits="userSpaceOnUse" color-interpolation-filters="sRGB">
<feFlood flood-opacity="0" result="BackgroundImageFix"/>
<feBlend mode="normal" in="SourceGraphic" in2="BackgroundImageFix" result="shape"/>
<feColorMatrix in="SourceAlpha" type="matrix" values="0 0 0 0 0 0 0 0 0 0 0 0 0 0 0 0 0 0 127 0" result="hardAlpha"/>
<feOffset dy="0.5"/>
<feGaussianBlur stdDeviation="0.5"/>
<feComposite in2="hardAlpha" operator="arithmetic" k2="-1" k3="1"/>
<feColorMatrix type="matrix" values="0 0 0 0 1 0 0 0 0 1 0 0 0 0 1 0 0 0 0.5 0"/>
<feBlend mode="normal" in2="shape" result="effect1_innerShadow_98_4582"/>
</filter>
<filter id="filter4_d_98_4582" x="86" y="82" width="58" height="58" filterUnits="userSpaceOnUse" color-interpolation-filters="sRGB">
<feFlood flood-opacity="0" result="BackgroundImageFix"/>
<feColorMatrix in="SourceAlpha" type="matrix" values="0 0 0 0 0 0 0 0 0 0 0 0 0 0 0 0 0 0 127 0" result="hardAlpha"/>
<feMorphology radius="6" operator="dilate" in="SourceAlpha" result="effect1_dropShadow_98_4582"/>
<feOffset dy="3"/>
<feGaussianBlur stdDeviation="7"/>
<feComposite in2="hardAlpha" operator="out"/>
<feColorMatrix type="matrix" values="0 0 0 0 0 0 0 0 0 0 0 0 0 0 0 0 0 0 0.12 0"/>
<feBlend mode="normal" in2="BackgroundImageFix" result="effect1_dropShadow_98_4582"/>
<feBlend mode="normal" in="SourceGraphic" in2="effect1_dropShadow_98_4582" result="shape"/>
</filter>
<clipPath id="clip0_98_4582">
<rect width="300" height="200" fill="white"/>
</clipPath>
<clipPath id="clip1_98_4582">
<rect width="194" height="64" fill="white" transform="translate(81 116)"/>
</clipPath>
<clipPath id="clip2_98_4582">
<rect width="15" height="15" fill="white" transform="translate(87 139.5)"/>
</clipPath>
</defs>
</svg>
