<svg width="34" height="34" viewBox="0 0 34 34" fill="none" xmlns="http://www.w3.org/2000/svg">
<g clip-path="url(#clip0_94_4311)">
<mask id="mask0_94_4311" style="mask-type:luminance" maskUnits="userSpaceOnUse" x="0" y="0" width="34" height="34">
<path d="M34 0H0V34H34V0Z" fill="white"/>
</mask>
<g mask="url(#mask0_94_4311)">
<path d="M34 0.00792011L33.9894 0.0132002V0L32.9233 0.54068L17.0138 8.41222L1.10612 0.541736L0.0405524 0V0.0142562L0.0320151 0.0100322L0.0405524 1.1933V17.2753L0 17.3154L0.0405524 17.3557V24.7451V25.5983L0.462618 25.8069L17.0171 33.9979V33.9995L17.0187 33.9989L17.023 34.0011L17.0256 33.9952L33.9894 25.6215V1.19277L34 0.00792011Z" fill="white"/>
<path d="M34 0.00792011L33.9894 0.0132002V0L32.9233 0.54068L17.0138 8.41222L1.10612 0.541736L0.0405524 0V0.0142562L0.0320151 0.0100322L0.0405524 1.1933V17.2753L0 17.3154L0.0405524 17.3557V24.7451V25.5983L0.462618 25.8069L17.0171 33.9979V33.9995L17.0187 33.9989L17.023 34.0011L17.0256 33.9952L33.9894 25.6215V1.19277L34 0.00844812V0.00792011ZM14.3161 31.4819L2.83174 25.7995H8.57416L14.3167 31.4819H14.3161ZM10.081 25.7995H23.9489L17.0149 32.661L10.081 25.7995ZM25.4563 25.7995H31.2056L19.7069 31.4888L25.4563 25.7995ZM26.5224 24.7451L32.9238 18.4106V24.7451H26.5224ZM25.015 24.7451H9.01544L1.47269 17.2812L17.0138 9.59178L32.5566 17.2822L25.015 24.7451ZM1.10612 1.72077L14.7573 8.47506H1.10612V1.72077ZM14.7552 9.53001L1.10612 16.2832V9.53001H14.7552ZM1.10612 18.4101L7.50806 24.7451H1.10612V18.4101ZM32.9233 16.2837L19.2726 9.52948H32.9233V16.2837ZM32.9233 8.47506H19.2699L32.9233 1.71972V8.47506Z" fill="#231F20"/>
</g>
</g>
<defs>
<clipPath id="clip0_94_4311">
<rect width="34" height="34" fill="white"/>
</clipPath>
</defs>
</svg>
